%FSLAX44Y44*%
%MOMM*%
G71*
G01*
G75*
G04 Layer_Physical_Order=2*
G04 Layer_Color=16711680*
%ADD10R,6.2000X3.9000*%
%ADD11R,4.4000X3.3000*%
%ADD12C,0.5000*%
%ADD13C,0.3000*%
%ADD14C,1.0000*%
%ADD15C,2.0000*%
%ADD16C,0.7500*%
%ADD17C,3.0000*%
%ADD18R,3.0000X3.0000*%
%ADD19C,2.0000*%
%ADD20R,1.6000X1.6000*%
%ADD21C,1.6000*%
%ADD22C,1.5000*%
%ADD23R,1.5000X1.5000*%
%ADD24R,1.5000X1.5000*%
%ADD25R,1.6000X1.6000*%
%ADD26R,2.5000X2.5000*%
%ADD27R,2.5000X2.5000*%
%ADD28R,3.0000X3.0000*%
%ADD29C,1.8000*%
%ADD30R,1.8000X1.8000*%
%ADD31C,1.6000*%
%ADD32O,2.2000X0.6000*%
G04:AMPARAMS|DCode=33|XSize=1.4mm|YSize=1mm|CornerRadius=0.125mm|HoleSize=0mm|Usage=FLASHONLY|Rotation=270.000|XOffset=0mm|YOffset=0mm|HoleType=Round|Shape=RoundedRectangle|*
%AMROUNDEDRECTD33*
21,1,1.4000,0.7500,0,0,270.0*
21,1,1.1500,1.0000,0,0,270.0*
1,1,0.2500,-0.3750,-0.5750*
1,1,0.2500,-0.3750,0.5750*
1,1,0.2500,0.3750,0.5750*
1,1,0.2500,0.3750,-0.5750*
%
%ADD33ROUNDEDRECTD33*%
G04:AMPARAMS|DCode=34|XSize=1.4mm|YSize=1mm|CornerRadius=0.125mm|HoleSize=0mm|Usage=FLASHONLY|Rotation=0.000|XOffset=0mm|YOffset=0mm|HoleType=Round|Shape=RoundedRectangle|*
%AMROUNDEDRECTD34*
21,1,1.4000,0.7500,0,0,0.0*
21,1,1.1500,1.0000,0,0,0.0*
1,1,0.2500,0.5750,-0.3750*
1,1,0.2500,-0.5750,-0.3750*
1,1,0.2500,-0.5750,0.3750*
1,1,0.2500,0.5750,0.3750*
%
%ADD34ROUNDEDRECTD34*%
G04:AMPARAMS|DCode=35|XSize=1.3mm|YSize=0.8mm|CornerRadius=0.1mm|HoleSize=0mm|Usage=FLASHONLY|Rotation=0.000|XOffset=0mm|YOffset=0mm|HoleType=Round|Shape=RoundedRectangle|*
%AMROUNDEDRECTD35*
21,1,1.3000,0.6000,0,0,0.0*
21,1,1.1000,0.8000,0,0,0.0*
1,1,0.2000,0.5500,-0.3000*
1,1,0.2000,-0.5500,-0.3000*
1,1,0.2000,-0.5500,0.3000*
1,1,0.2000,0.5500,0.3000*
%
%ADD35ROUNDEDRECTD35*%
G04:AMPARAMS|DCode=36|XSize=1.3mm|YSize=0.8mm|CornerRadius=0.1mm|HoleSize=0mm|Usage=FLASHONLY|Rotation=90.000|XOffset=0mm|YOffset=0mm|HoleType=Round|Shape=RoundedRectangle|*
%AMROUNDEDRECTD36*
21,1,1.3000,0.6000,0,0,90.0*
21,1,1.1000,0.8000,0,0,90.0*
1,1,0.2000,0.3000,0.5500*
1,1,0.2000,0.3000,-0.5500*
1,1,0.2000,-0.3000,-0.5500*
1,1,0.2000,-0.3000,0.5500*
%
%ADD36ROUNDEDRECTD36*%
%ADD37R,0.6000X1.1500*%
G04:AMPARAMS|DCode=38|XSize=0.6mm|YSize=1mm|CornerRadius=0.075mm|HoleSize=0mm|Usage=FLASHONLY|Rotation=270.000|XOffset=0mm|YOffset=0mm|HoleType=Round|Shape=RoundedRectangle|*
%AMROUNDEDRECTD38*
21,1,0.6000,0.8500,0,0,270.0*
21,1,0.4500,1.0000,0,0,270.0*
1,1,0.1500,-0.4250,-0.2250*
1,1,0.1500,-0.4250,0.2250*
1,1,0.1500,0.4250,0.2250*
1,1,0.1500,0.4250,-0.2250*
%
%ADD38ROUNDEDRECTD38*%
%ADD39O,0.6000X2.2000*%
%ADD40C,4.0000*%
%ADD41C,3.0000*%
%ADD42C,1.8000*%
%ADD43C,0.2000*%
%ADD44C,0.4000*%
G36*
X1169801Y1141861D02*
X1171995Y1140178D01*
X1174549Y1139120D01*
X1177290Y1138759D01*
X1192726D01*
X1194268Y1136186D01*
X1193258Y1134297D01*
X1192286Y1131093D01*
X1191958Y1127760D01*
X1192286Y1124427D01*
X1193258Y1121223D01*
X1194837Y1118270D01*
X1196961Y1115681D01*
X1199550Y1113557D01*
X1202503Y1111978D01*
X1202503Y1111978D01*
X1202503D01*
X1203565Y1111300D01*
X1203556Y1111306D01*
X1203686Y1108309D01*
X1203350Y1108050D01*
X1201500Y1105640D01*
X1200337Y1102832D01*
X1200108Y1101090D01*
X1223052D01*
X1222823Y1102832D01*
X1221660Y1105640D01*
X1219951Y1107867D01*
X1220456Y1108892D01*
X1220981Y1109576D01*
X1223981Y1109576D01*
X1225021Y1108221D01*
X1226901Y1106778D01*
X1228176Y1106251D01*
X1227991Y1105320D01*
Y1101090D01*
X1234600D01*
Y1099820D01*
X1235870D01*
Y1090711D01*
X1237600D01*
X1238981Y1090985D01*
X1238984Y1090987D01*
X1241629Y1089573D01*
Y1059077D01*
X1238687Y1058492D01*
X1238208Y1059648D01*
X1236445Y1061945D01*
X1234147Y1063708D01*
X1231472Y1064817D01*
X1228600Y1065195D01*
X1219402D01*
X1025347Y1259250D01*
D01*
Y1259250D01*
X1025458Y1259995D01*
X1025787Y1262218D01*
Y1262218D01*
X1028030Y1263417D01*
X1030619Y1265541D01*
X1032743Y1268130D01*
X1034322Y1271083D01*
X1034931Y1273092D01*
X1037841Y1273821D01*
X1169801Y1141861D01*
D02*
G37*
G36*
X1424861Y1237589D02*
X1427050Y1236682D01*
X1429400Y1236372D01*
X1435400D01*
X1436338Y1236496D01*
X1438279Y1234208D01*
X1437924Y1233038D01*
X1437625Y1230000D01*
X1437924Y1226962D01*
X1438811Y1224040D01*
X1440250Y1221347D01*
X1442187Y1218987D01*
X1443618Y1217812D01*
Y1199650D01*
X1443945Y1197170D01*
X1444902Y1194859D01*
X1446425Y1192875D01*
X1449500Y1189799D01*
Y1183600D01*
X1440000D01*
Y1156100D01*
X1440409D01*
X1440409Y1155200D01*
X1440409Y1155200D01*
X1440409D01*
X1440770Y1152459D01*
X1441828Y1149905D01*
X1443511Y1147711D01*
X1450100Y1141122D01*
X1448952Y1138351D01*
X1421707D01*
X1391789Y1168269D01*
X1389595Y1169952D01*
X1388537Y1170390D01*
X1387041Y1171010D01*
X1384300Y1171371D01*
X1195647D01*
X1153560Y1213458D01*
X1154708Y1216229D01*
X1368738D01*
X1370525Y1213820D01*
X1370086Y1212373D01*
X1369758Y1209040D01*
X1370086Y1205707D01*
X1371058Y1202503D01*
X1372637Y1199550D01*
X1374761Y1196961D01*
X1377350Y1194837D01*
X1380303Y1193258D01*
X1383507Y1192286D01*
X1386840Y1191958D01*
X1390173Y1192286D01*
X1393377Y1193258D01*
X1396330Y1194837D01*
X1398919Y1196961D01*
X1401043Y1199550D01*
X1402622Y1202503D01*
X1403594Y1205707D01*
X1403922Y1209040D01*
X1403606Y1212255D01*
X1407426Y1216075D01*
X1408948Y1218059D01*
X1409229Y1218736D01*
X1409906Y1220370D01*
X1410232Y1222850D01*
Y1236372D01*
X1415400D01*
X1417749Y1236682D01*
X1419939Y1237589D01*
X1421819Y1239031D01*
X1422981D01*
X1424861Y1237589D01*
D02*
G37*
G36*
X1202090Y1644417D02*
X1205043Y1642838D01*
X1208247Y1641866D01*
X1211580Y1641538D01*
X1214913Y1641866D01*
X1218117Y1642838D01*
X1220136Y1643917D01*
X1222709Y1642375D01*
Y1603447D01*
X1210956Y1591694D01*
X1209040Y1591882D01*
X1205707Y1591554D01*
X1202503Y1590582D01*
X1200614Y1589572D01*
X1198041Y1591115D01*
Y1644231D01*
X1200753Y1645514D01*
X1202090Y1644417D01*
D02*
G37*
G36*
X1081187Y1360587D02*
X1083547Y1358650D01*
X1086240Y1357211D01*
X1089162Y1356324D01*
X1092200Y1356025D01*
X1092230Y1356028D01*
X1094316Y1353872D01*
X1094309Y1353820D01*
X1094670Y1351079D01*
X1095728Y1348525D01*
X1097411Y1346331D01*
X1176334Y1267409D01*
X1176132Y1265357D01*
X1175715Y1264192D01*
X1172687Y1263894D01*
X1169984Y1263074D01*
X1076458Y1356599D01*
X1076605Y1359596D01*
X1077813Y1360587D01*
X1078000Y1360814D01*
X1081000D01*
X1081187Y1360587D01*
D02*
G37*
G36*
X1382858Y1110554D02*
X1382732Y1110249D01*
X1382422Y1107900D01*
Y1101900D01*
X1382732Y1099550D01*
X1383638Y1097361D01*
X1385081Y1095481D01*
X1386961Y1094038D01*
X1389151Y1093132D01*
X1391500Y1092822D01*
X1394100D01*
X1445040Y1041883D01*
X1443892Y1039111D01*
X1422400D01*
X1417891Y1038667D01*
X1415410Y1037914D01*
X1413000Y1039702D01*
Y1057400D01*
X1381000D01*
Y1051991D01*
X1366791D01*
Y1069500D01*
X1366430Y1072241D01*
X1365372Y1074795D01*
X1363689Y1076989D01*
X1357200Y1083477D01*
Y1093250D01*
D01*
Y1093250D01*
X1357660Y1093710D01*
X1361240D01*
Y1100730D01*
X1355700D01*
Y1103270D01*
X1361240D01*
Y1108714D01*
X1363463Y1110729D01*
X1363980Y1110678D01*
X1367313Y1111006D01*
X1370517Y1111978D01*
X1372520Y1113049D01*
X1381191D01*
X1382858Y1110554D01*
D02*
G37*
G36*
X889496Y977666D02*
X889300Y974673D01*
X887505Y973295D01*
X885742Y970997D01*
X885039Y969301D01*
X777199D01*
X733594Y1012907D01*
X734604Y1015732D01*
X734853Y1015756D01*
X738057Y1016728D01*
X741010Y1018307D01*
X743599Y1020431D01*
X744820Y1021919D01*
X845243D01*
X889496Y977666D01*
D02*
G37*
G36*
X1096775Y952154D02*
X1095627Y949382D01*
X995405D01*
X995345Y949450D01*
Y954327D01*
X996795Y956217D01*
X997803Y958650D01*
X998146Y961260D01*
Y975513D01*
X998407Y975713D01*
X999890Y977645D01*
X1000822Y979895D01*
X1001140Y982310D01*
Y993810D01*
X1000822Y996225D01*
X999911Y998423D01*
Y1017704D01*
X1000139Y1017891D01*
X1002263Y1020480D01*
X1003842Y1023433D01*
X1004814Y1026637D01*
X1005142Y1029970D01*
X1004814Y1033303D01*
X1003842Y1036507D01*
X1003651Y1036865D01*
X1005193Y1039438D01*
X1009491D01*
X1096775Y952154D01*
D02*
G37*
G36*
X1323918Y1133059D02*
X1320500D01*
X1319119Y1132785D01*
X1317948Y1132002D01*
X1317165Y1130831D01*
X1316891Y1129450D01*
Y1125220D01*
X1323500D01*
Y1122680D01*
X1316891D01*
Y1118450D01*
X1317165Y1117069D01*
X1317948Y1115898D01*
X1319119Y1115115D01*
X1320500Y1114841D01*
X1323918D01*
Y1105200D01*
X1324245Y1102720D01*
X1325202Y1100409D01*
X1325700Y1099760D01*
Y1088250D01*
X1335200D01*
Y1065750D01*
X1344973D01*
X1345609Y1065113D01*
Y1056687D01*
X1343115Y1055020D01*
X1341550Y1055668D01*
X1339200Y1055978D01*
X1333200D01*
X1330851Y1055668D01*
X1328661Y1054762D01*
X1326781Y1053319D01*
X1325047Y1053091D01*
X1324865Y1053230D01*
X1322615Y1054162D01*
X1320200Y1054480D01*
X1308700D01*
X1306285Y1054162D01*
X1304645Y1053482D01*
X1296539Y1061589D01*
X1294345Y1063272D01*
X1293287Y1063710D01*
X1291791Y1064330D01*
X1289050Y1064691D01*
X1279776D01*
X1279472Y1064817D01*
X1276600Y1065195D01*
X1262811D01*
Y1086974D01*
X1264019Y1087901D01*
X1265462Y1089781D01*
X1266368Y1091971D01*
X1266678Y1094320D01*
Y1105320D01*
X1266368Y1107670D01*
X1265462Y1109859D01*
X1265288Y1110084D01*
X1265302Y1110101D01*
X1266208Y1112290D01*
X1266518Y1114640D01*
Y1125640D01*
X1266208Y1127990D01*
X1265302Y1130179D01*
X1263859Y1132059D01*
X1261979Y1133502D01*
X1259790Y1134408D01*
X1257440Y1134718D01*
X1251440D01*
X1249090Y1134408D01*
X1246901Y1133502D01*
X1245021Y1132059D01*
X1243859D01*
X1241979Y1133502D01*
X1239790Y1134408D01*
X1237440Y1134718D01*
X1231440D01*
X1229090Y1134408D01*
X1226901Y1133502D01*
X1225259Y1134029D01*
X1224202Y1136837D01*
X1225355Y1138759D01*
X1323918D01*
Y1133059D01*
D02*
G37*
G36*
X972469Y1036865D02*
X972278Y1036507D01*
X971306Y1033303D01*
X970978Y1029970D01*
X971306Y1026637D01*
X971485Y1026047D01*
X970280Y1024626D01*
Y1012190D01*
X969010D01*
Y1010920D01*
X957538D01*
X957767Y1009177D01*
X958930Y1006370D01*
X960780Y1003960D01*
X963190Y1002110D01*
X965997Y1000947D01*
X968119Y1000668D01*
X967922Y997674D01*
X966310D01*
X964831Y997380D01*
X963577Y996542D01*
X962740Y995289D01*
X962446Y993810D01*
Y989330D01*
X970060D01*
Y988060D01*
X971330D01*
Y978446D01*
X973810D01*
X975289Y978740D01*
X975847Y978571D01*
X976230Y977645D01*
X977104Y976506D01*
X976713Y973532D01*
X976405Y973295D01*
X974641Y970997D01*
X974619Y970944D01*
X973712Y970669D01*
X972820Y970846D01*
Y957450D01*
X970280D01*
Y970846D01*
X969388Y970669D01*
X968481Y970944D01*
X968458Y970997D01*
X966695Y973295D01*
X964398Y975059D01*
X961722Y976167D01*
X958850Y976545D01*
X955978Y976167D01*
X953303Y975059D01*
X952500Y974443D01*
X951697Y975059D01*
X949022Y976167D01*
X946150Y976545D01*
X944929Y977616D01*
X945563Y980548D01*
X947607Y981168D01*
X950560Y982747D01*
X953149Y984871D01*
X955273Y987460D01*
X956852Y990413D01*
X957824Y993617D01*
X958152Y996950D01*
X957824Y1000283D01*
X956852Y1003487D01*
X955273Y1006440D01*
X953149Y1009029D01*
X950560Y1011153D01*
X947607Y1012732D01*
X944403Y1013704D01*
X941070Y1014032D01*
X937737Y1013704D01*
X934533Y1012732D01*
X931580Y1011153D01*
X930910Y1010604D01*
X930240Y1011153D01*
X927287Y1012732D01*
X924083Y1013704D01*
X920750Y1014032D01*
X917417Y1013704D01*
X914213Y1012732D01*
X911260Y1011153D01*
X908671Y1009029D01*
X906547Y1006440D01*
X904968Y1003487D01*
X903996Y1000283D01*
X903698Y997255D01*
X902533Y996838D01*
X900481Y996636D01*
X860451Y1036666D01*
X861599Y1039438D01*
X970927D01*
X972469Y1036865D01*
D02*
G37*
G36*
X1496418Y1738727D02*
X1493508Y1737998D01*
X1492416Y1740040D01*
X1489542Y1743542D01*
X1486040Y1746416D01*
X1482044Y1748552D01*
X1477709Y1749867D01*
X1473200Y1750311D01*
X1468691Y1749867D01*
X1464356Y1748552D01*
X1460360Y1746416D01*
X1456858Y1743542D01*
X1453984Y1740040D01*
X1451848Y1736044D01*
X1450533Y1731709D01*
X1450089Y1727200D01*
X1450533Y1722691D01*
X1451848Y1718356D01*
X1453984Y1714360D01*
X1456858Y1710858D01*
X1460360Y1707984D01*
X1464356Y1705848D01*
X1468691Y1704533D01*
X1473200Y1704089D01*
X1477709Y1704533D01*
X1482044Y1705848D01*
X1486040Y1707984D01*
X1489542Y1710858D01*
X1492416Y1714360D01*
X1493508Y1716402D01*
X1496418Y1715673D01*
Y1548510D01*
X1493508Y1547781D01*
X1493316Y1548140D01*
X1490442Y1551642D01*
X1486940Y1554516D01*
X1482944Y1556652D01*
X1478609Y1557967D01*
X1474100Y1558411D01*
X1469591Y1557967D01*
X1465256Y1556652D01*
X1461260Y1554516D01*
X1457758Y1551642D01*
X1454884Y1548140D01*
X1452748Y1544144D01*
X1451433Y1539809D01*
X1450989Y1535300D01*
X1451433Y1530791D01*
X1452748Y1526456D01*
X1454884Y1522460D01*
X1457758Y1518958D01*
X1461260Y1516084D01*
X1465256Y1513948D01*
X1469591Y1512633D01*
X1474100Y1512189D01*
X1478609Y1512633D01*
X1482944Y1513948D01*
X1486940Y1516084D01*
X1490442Y1518958D01*
X1493316Y1522460D01*
X1493508Y1522819D01*
X1496418Y1522090D01*
Y1040483D01*
X1495425Y1038626D01*
X1494008Y1037575D01*
X1490409Y1038667D01*
X1485900Y1039111D01*
X1477766D01*
X1411578Y1105300D01*
Y1107900D01*
X1411268Y1110249D01*
X1410361Y1112439D01*
X1408919Y1114319D01*
Y1115481D01*
X1410361Y1117361D01*
X1412025Y1118588D01*
Y1118588D01*
X1412025Y1118588D01*
X1414579Y1117530D01*
X1417320Y1117169D01*
X1465580D01*
X1468321Y1117530D01*
X1470875Y1118588D01*
X1473069Y1120271D01*
X1474752Y1122465D01*
X1475399Y1124029D01*
X1479975Y1128605D01*
X1481498Y1130589D01*
X1482455Y1132900D01*
X1482586Y1133891D01*
X1486200D01*
X1487581Y1134165D01*
X1488752Y1134948D01*
X1489535Y1136119D01*
X1489809Y1137500D01*
Y1141730D01*
X1483200D01*
Y1144270D01*
X1489809D01*
Y1148500D01*
X1489535Y1149881D01*
X1488752Y1151052D01*
X1487581Y1151835D01*
X1486200Y1152109D01*
X1482702D01*
X1482455Y1153980D01*
X1481498Y1156291D01*
X1481000Y1156940D01*
Y1181637D01*
X1482372Y1183425D01*
X1483430Y1185979D01*
X1483791Y1188720D01*
Y1218640D01*
X1484213Y1218987D01*
X1486150Y1221347D01*
X1487589Y1224040D01*
X1488476Y1226962D01*
X1488775Y1230000D01*
X1488476Y1233038D01*
X1487589Y1235960D01*
X1486150Y1238653D01*
X1484213Y1241013D01*
X1481853Y1242950D01*
X1481544Y1244381D01*
X1481970Y1244937D01*
X1482982Y1247379D01*
X1483159Y1248730D01*
X1473200D01*
Y1251270D01*
X1483159D01*
X1482982Y1252621D01*
X1481970Y1255063D01*
X1480361Y1257161D01*
X1478615Y1258500D01*
Y1261500D01*
X1480361Y1262839D01*
X1481970Y1264937D01*
X1482982Y1267379D01*
X1483159Y1268730D01*
X1473200D01*
Y1271270D01*
X1483159D01*
X1482982Y1272621D01*
X1481970Y1275063D01*
X1480361Y1277161D01*
X1478615Y1278500D01*
Y1281500D01*
X1480361Y1282839D01*
X1481970Y1284937D01*
X1482982Y1287379D01*
X1483159Y1288730D01*
X1473200D01*
Y1290000D01*
X1471930D01*
Y1299959D01*
X1470956Y1299831D01*
X1468700Y1301809D01*
Y1305500D01*
X1464612D01*
Y1310252D01*
X1465750Y1311186D01*
X1468230D01*
Y1320800D01*
Y1330414D01*
X1465750D01*
X1464271Y1330120D01*
X1463713Y1330289D01*
X1463330Y1331215D01*
X1461847Y1333147D01*
X1459915Y1334630D01*
X1457665Y1335562D01*
X1455250Y1335880D01*
X1447750D01*
X1445335Y1335562D01*
X1443085Y1334630D01*
X1441153Y1333147D01*
X1439670Y1331215D01*
X1438738Y1328965D01*
X1438420Y1326550D01*
Y1321046D01*
X1438388Y1320800D01*
Y1312404D01*
X1435676Y1311121D01*
X1434430Y1312143D01*
X1431477Y1313722D01*
X1428273Y1314694D01*
X1424940Y1315022D01*
X1421607Y1314694D01*
X1418403Y1313722D01*
X1415450Y1312143D01*
X1412861Y1310019D01*
X1410737Y1307430D01*
X1409158Y1304477D01*
X1408186Y1301273D01*
X1407858Y1297940D01*
X1408186Y1294607D01*
X1409158Y1291403D01*
X1410737Y1288450D01*
X1411689Y1287290D01*
X1410406Y1284578D01*
X1409400D01*
X1407050Y1284268D01*
X1406525Y1284051D01*
X1405999Y1284268D01*
X1403650Y1284578D01*
X1397650D01*
X1395300Y1284268D01*
X1393111Y1283362D01*
X1391231Y1281919D01*
X1389789Y1280039D01*
X1389198Y1278614D01*
X1388923Y1278500D01*
X1385532D01*
X1385031Y1278835D01*
X1383650Y1279109D01*
X1381920D01*
Y1270000D01*
X1380650D01*
Y1268730D01*
X1374041D01*
Y1264500D01*
X1374315Y1263119D01*
X1375098Y1261948D01*
X1376269Y1261165D01*
X1376269Y1261165D01*
X1375098Y1259002D01*
X1375098Y1259002D01*
X1375098D01*
X1374315Y1257831D01*
X1374041Y1256450D01*
Y1252220D01*
X1380650D01*
Y1250950D01*
X1381920D01*
Y1241841D01*
X1382842D01*
Y1237411D01*
X1361631D01*
X1360348Y1240123D01*
X1360403Y1240190D01*
X1361982Y1243143D01*
X1362954Y1246347D01*
X1363282Y1249680D01*
X1362954Y1253013D01*
X1361982Y1256217D01*
X1360403Y1259170D01*
X1358279Y1261759D01*
X1355690Y1263883D01*
X1352737Y1265462D01*
X1349533Y1266434D01*
X1346200Y1266762D01*
X1342867Y1266434D01*
X1339663Y1265462D01*
X1336710Y1263883D01*
X1334121Y1261759D01*
X1332900Y1260271D01*
X1213427D01*
X1120196Y1353501D01*
X1120925Y1356411D01*
X1123560Y1357211D01*
X1126253Y1358650D01*
X1128613Y1360587D01*
X1128800Y1360814D01*
X1131800D01*
X1131987Y1360587D01*
X1134347Y1358650D01*
X1137040Y1357211D01*
X1139961Y1356324D01*
X1143000Y1356025D01*
X1146039Y1356324D01*
X1148960Y1357211D01*
X1151653Y1358650D01*
X1154013Y1360587D01*
X1154200Y1360814D01*
X1157200D01*
X1157387Y1360587D01*
X1159747Y1358650D01*
X1162440Y1357211D01*
X1165361Y1356324D01*
X1168400Y1356025D01*
X1171439Y1356324D01*
X1174360Y1357211D01*
X1177053Y1358650D01*
X1179413Y1360587D01*
X1179600Y1360814D01*
X1182600D01*
X1182787Y1360587D01*
X1185147Y1358650D01*
X1187840Y1357211D01*
X1190761Y1356324D01*
X1193800Y1356025D01*
X1196839Y1356324D01*
X1199760Y1357211D01*
X1202453Y1358650D01*
X1204813Y1360587D01*
X1205000Y1360814D01*
X1208000D01*
X1208187Y1360587D01*
X1210547Y1358650D01*
X1213240Y1357211D01*
X1216161Y1356324D01*
X1219200Y1356025D01*
X1222238Y1356324D01*
X1225160Y1357211D01*
X1227853Y1358650D01*
X1230213Y1360587D01*
X1230400Y1360814D01*
X1233400D01*
X1233587Y1360587D01*
X1235947Y1358650D01*
X1238640Y1357211D01*
X1241562Y1356324D01*
X1244600Y1356025D01*
X1245495Y1356113D01*
X1247718Y1354099D01*
Y1345088D01*
X1245221Y1343039D01*
X1243097Y1340450D01*
X1241518Y1337497D01*
X1240546Y1334293D01*
X1240218Y1330960D01*
X1240546Y1327627D01*
X1241518Y1324423D01*
X1243097Y1321470D01*
X1245221Y1318881D01*
X1247810Y1316757D01*
X1250763Y1315178D01*
X1253967Y1314206D01*
X1257300Y1313878D01*
X1260633Y1314206D01*
X1263837Y1315178D01*
X1266790Y1316757D01*
X1269379Y1318881D01*
X1271503Y1321470D01*
X1273082Y1324423D01*
X1274054Y1327627D01*
X1274382Y1330960D01*
X1274054Y1334293D01*
X1273082Y1337497D01*
X1271503Y1340450D01*
X1269379Y1343039D01*
X1266882Y1345088D01*
Y1354099D01*
X1269105Y1356113D01*
X1270000Y1356025D01*
X1273038Y1356324D01*
X1275960Y1357211D01*
X1278653Y1358650D01*
X1281013Y1360587D01*
X1281200Y1360814D01*
X1284200D01*
X1284387Y1360587D01*
X1284809Y1360240D01*
Y1345530D01*
X1283321Y1344309D01*
X1281197Y1341720D01*
X1279618Y1338767D01*
X1278646Y1335563D01*
X1278318Y1332230D01*
X1278646Y1328897D01*
X1279618Y1325693D01*
X1281197Y1322740D01*
X1283321Y1320151D01*
X1285910Y1318027D01*
X1288863Y1316448D01*
X1292067Y1315476D01*
X1295400Y1315148D01*
X1298733Y1315476D01*
X1301937Y1316448D01*
X1304890Y1318027D01*
X1307479Y1320151D01*
X1309603Y1322740D01*
X1311182Y1325693D01*
X1312154Y1328897D01*
X1312482Y1332230D01*
X1312154Y1335563D01*
X1311182Y1338767D01*
X1309603Y1341720D01*
X1307479Y1344309D01*
X1305991Y1345530D01*
Y1360240D01*
X1306413Y1360587D01*
X1306600Y1360814D01*
X1309600D01*
X1309787Y1360587D01*
X1312147Y1358650D01*
X1314840Y1357211D01*
X1317762Y1356324D01*
X1320800Y1356025D01*
X1323839Y1356324D01*
X1326760Y1357211D01*
X1329453Y1358650D01*
X1331813Y1360587D01*
X1332000Y1360814D01*
X1335000D01*
X1335187Y1360587D01*
X1337547Y1358650D01*
X1340240Y1357211D01*
X1343161Y1356324D01*
X1346200Y1356025D01*
X1349238Y1356324D01*
X1352160Y1357211D01*
X1354853Y1358650D01*
X1357213Y1360587D01*
X1357400Y1360814D01*
X1360400D01*
X1360587Y1360587D01*
X1362947Y1358650D01*
X1365640Y1357211D01*
X1368562Y1356324D01*
X1371600Y1356025D01*
X1374639Y1356324D01*
X1377560Y1357211D01*
X1380253Y1358650D01*
X1382613Y1360587D01*
X1382800Y1360814D01*
X1385800D01*
X1385987Y1360587D01*
X1388347Y1358650D01*
X1391040Y1357211D01*
X1393961Y1356324D01*
X1397000Y1356025D01*
X1400038Y1356324D01*
X1402960Y1357211D01*
X1405653Y1358650D01*
X1408013Y1360587D01*
X1408200Y1360814D01*
X1411200D01*
X1411387Y1360587D01*
X1413747Y1358650D01*
X1416440Y1357211D01*
X1419362Y1356324D01*
X1422400Y1356025D01*
X1425439Y1356324D01*
X1428360Y1357211D01*
X1431053Y1358650D01*
X1433413Y1360587D01*
X1433600Y1360814D01*
X1436600D01*
X1436787Y1360587D01*
X1439147Y1358650D01*
X1441840Y1357211D01*
X1444762Y1356324D01*
X1447800Y1356025D01*
X1450838Y1356324D01*
X1453760Y1357211D01*
X1456453Y1358650D01*
X1458813Y1360587D01*
X1460750Y1362947D01*
X1462087Y1365448D01*
X1462664Y1365496D01*
X1466007Y1364482D01*
X1466039Y1364439D01*
X1468137Y1362830D01*
X1470579Y1361818D01*
X1471930Y1361641D01*
Y1371600D01*
Y1381559D01*
X1470579Y1381382D01*
X1468137Y1380370D01*
X1466039Y1378761D01*
X1466007Y1378718D01*
X1462664Y1377704D01*
X1462087Y1377752D01*
X1460750Y1380253D01*
X1458813Y1382613D01*
X1458586Y1382800D01*
Y1385800D01*
X1458813Y1385987D01*
X1460750Y1388347D01*
X1462087Y1390848D01*
X1462664Y1390896D01*
X1466007Y1389882D01*
X1466039Y1389839D01*
X1468137Y1388230D01*
X1470579Y1387218D01*
X1471930Y1387041D01*
Y1397000D01*
Y1406959D01*
X1470579Y1406782D01*
X1468137Y1405770D01*
X1466039Y1404161D01*
X1466007Y1404118D01*
X1462664Y1403104D01*
X1462087Y1403152D01*
X1460750Y1405653D01*
X1458813Y1408013D01*
X1456453Y1409950D01*
X1453760Y1411389D01*
X1450838Y1412276D01*
X1447800Y1412575D01*
X1444762Y1412276D01*
X1441840Y1411389D01*
X1439147Y1409950D01*
X1436787Y1408013D01*
X1436600Y1407786D01*
X1433600D01*
X1433413Y1408013D01*
X1431053Y1409950D01*
X1428360Y1411389D01*
X1425439Y1412276D01*
X1422400Y1412575D01*
X1419362Y1412276D01*
X1416440Y1411389D01*
X1413747Y1409950D01*
X1411387Y1408013D01*
X1411200Y1407786D01*
X1408200D01*
X1408013Y1408013D01*
X1405653Y1409950D01*
X1402960Y1411389D01*
X1400038Y1412276D01*
X1397000Y1412575D01*
X1393961Y1412276D01*
X1391040Y1411389D01*
X1388347Y1409950D01*
X1385987Y1408013D01*
X1385800Y1407786D01*
X1382800D01*
X1382613Y1408013D01*
X1380253Y1409950D01*
X1377560Y1411389D01*
X1374639Y1412276D01*
X1371600Y1412575D01*
X1368562Y1412276D01*
X1365640Y1411389D01*
X1362947Y1409950D01*
X1360587Y1408013D01*
X1360400Y1407786D01*
X1357400D01*
X1357213Y1408013D01*
X1354853Y1409950D01*
X1352160Y1411389D01*
X1349238Y1412276D01*
X1346200Y1412575D01*
X1343161Y1412276D01*
X1340240Y1411389D01*
X1337547Y1409950D01*
X1335187Y1408013D01*
X1335000Y1407786D01*
X1332000D01*
X1331813Y1408013D01*
X1331391Y1408360D01*
Y1411640D01*
X1332879Y1412861D01*
X1335003Y1415450D01*
X1336582Y1418403D01*
X1337554Y1421607D01*
X1337882Y1424940D01*
X1337554Y1428273D01*
X1336582Y1431477D01*
X1335003Y1434430D01*
X1332879Y1437019D01*
X1330290Y1439143D01*
X1327337Y1440722D01*
X1324133Y1441694D01*
X1320800Y1442022D01*
X1317467Y1441694D01*
X1314263Y1440722D01*
X1311310Y1439143D01*
X1308721Y1437019D01*
X1308330Y1436543D01*
X1305330D01*
X1304939Y1437019D01*
X1302350Y1439143D01*
X1299397Y1440722D01*
X1296193Y1441694D01*
X1292860Y1442022D01*
X1289527Y1441694D01*
X1286323Y1440722D01*
X1283370Y1439143D01*
X1280781Y1437019D01*
X1278657Y1434430D01*
X1277078Y1431477D01*
X1276106Y1428273D01*
X1275778Y1424940D01*
X1276106Y1421607D01*
X1277078Y1418403D01*
X1278657Y1415450D01*
X1280781Y1412861D01*
X1283370Y1410737D01*
X1283446Y1410696D01*
X1283143Y1409484D01*
X1282258Y1408406D01*
X1281129Y1407872D01*
X1281013Y1408013D01*
X1278653Y1409950D01*
X1275960Y1411389D01*
X1273038Y1412276D01*
X1270000Y1412575D01*
X1266962Y1412276D01*
X1264040Y1411389D01*
X1261347Y1409950D01*
X1258987Y1408013D01*
X1258800Y1407786D01*
X1255800D01*
X1255613Y1408013D01*
X1253253Y1409950D01*
X1250560Y1411389D01*
X1250111Y1411526D01*
Y1416720D01*
X1251599Y1417941D01*
X1253723Y1420530D01*
X1255302Y1423483D01*
X1256274Y1426687D01*
X1256602Y1430020D01*
X1256274Y1433353D01*
X1255302Y1436557D01*
X1253723Y1439510D01*
X1251599Y1442099D01*
X1249010Y1444223D01*
X1246057Y1445802D01*
X1242853Y1446774D01*
X1239520Y1447102D01*
X1236187Y1446774D01*
X1232983Y1445802D01*
X1230030Y1444223D01*
X1227441Y1442099D01*
X1225317Y1439510D01*
X1224171Y1437366D01*
X1221171D01*
X1220703Y1438240D01*
X1218579Y1440829D01*
X1215990Y1442953D01*
X1213037Y1444532D01*
X1209833Y1445504D01*
X1206500Y1445832D01*
X1203167Y1445504D01*
X1199963Y1444532D01*
X1197010Y1442953D01*
X1194421Y1440829D01*
X1192297Y1438240D01*
X1190718Y1435287D01*
X1189746Y1432083D01*
X1189418Y1428750D01*
X1189746Y1425417D01*
X1190718Y1422213D01*
X1192297Y1419260D01*
X1194421Y1416671D01*
X1196183Y1415225D01*
X1195035Y1412453D01*
X1193800Y1412575D01*
X1190761Y1412276D01*
X1187840Y1411389D01*
X1185147Y1409950D01*
X1182787Y1408013D01*
X1182600Y1407786D01*
X1179600D01*
X1179413Y1408013D01*
X1177053Y1409950D01*
X1174360Y1411389D01*
X1171439Y1412276D01*
X1168400Y1412575D01*
X1165361Y1412276D01*
X1162440Y1411389D01*
X1159747Y1409950D01*
X1157387Y1408013D01*
X1157200Y1407786D01*
X1154200D01*
X1154013Y1408013D01*
X1151653Y1409950D01*
X1148960Y1411389D01*
X1146039Y1412276D01*
X1143000Y1412575D01*
X1139961Y1412276D01*
X1137040Y1411389D01*
X1134347Y1409950D01*
X1131987Y1408013D01*
X1131800Y1407786D01*
X1128800D01*
X1128613Y1408013D01*
X1126253Y1409950D01*
X1123560Y1411389D01*
X1120639Y1412276D01*
X1117600Y1412575D01*
X1114561Y1412276D01*
X1111640Y1411389D01*
X1108947Y1409950D01*
X1106587Y1408013D01*
X1106400Y1407786D01*
X1103400D01*
X1103213Y1408013D01*
X1100853Y1409950D01*
X1098160Y1411389D01*
X1095238Y1412276D01*
X1092200Y1412575D01*
X1089162Y1412276D01*
X1086240Y1411389D01*
X1083547Y1409950D01*
X1081187Y1408013D01*
X1081000Y1407786D01*
X1078000D01*
X1077813Y1408013D01*
X1075453Y1409950D01*
X1072760Y1411389D01*
X1069838Y1412276D01*
X1066800Y1412575D01*
X1063762Y1412276D01*
X1060840Y1411389D01*
X1058147Y1409950D01*
X1055787Y1408013D01*
X1055600Y1407786D01*
X1052600D01*
X1052413Y1408013D01*
X1050053Y1409950D01*
X1047360Y1411389D01*
X1044438Y1412276D01*
X1041400Y1412575D01*
X1038362Y1412276D01*
X1035440Y1411389D01*
X1032747Y1409950D01*
X1030387Y1408013D01*
X1030200Y1407786D01*
X1027200D01*
X1027013Y1408013D01*
X1024653Y1409950D01*
X1021960Y1411389D01*
X1019038Y1412276D01*
X1016000Y1412575D01*
X1012962Y1412276D01*
X1010040Y1411389D01*
X1007347Y1409950D01*
X1004987Y1408013D01*
X1004800Y1407786D01*
X1001800D01*
X1001613Y1408013D01*
X999253Y1409950D01*
X996560Y1411389D01*
X993639Y1412276D01*
X990600Y1412575D01*
X987561Y1412276D01*
X984640Y1411389D01*
X981947Y1409950D01*
X979587Y1408013D01*
X979400Y1407786D01*
X976400D01*
X976213Y1408013D01*
X973853Y1409950D01*
X971160Y1411389D01*
X968239Y1412276D01*
X965200Y1412575D01*
X962161Y1412276D01*
X959240Y1411389D01*
X956547Y1409950D01*
X954187Y1408013D01*
X954000Y1407786D01*
X951000D01*
X950813Y1408013D01*
X948453Y1409950D01*
X945760Y1411389D01*
X942839Y1412276D01*
X939800Y1412575D01*
X936761Y1412276D01*
X933840Y1411389D01*
X931147Y1409950D01*
X928787Y1408013D01*
X928600Y1407786D01*
X925600D01*
X925413Y1408013D01*
X923053Y1409950D01*
X920360Y1411389D01*
X917439Y1412276D01*
X914400Y1412575D01*
X911361Y1412276D01*
X908440Y1411389D01*
X905747Y1409950D01*
X903387Y1408013D01*
X903200Y1407786D01*
X900200D01*
X900013Y1408013D01*
X897653Y1409950D01*
X894960Y1411389D01*
X892038Y1412276D01*
X889000Y1412575D01*
X885962Y1412276D01*
X883040Y1411389D01*
X880347Y1409950D01*
X877987Y1408013D01*
X876050Y1405653D01*
X874713Y1403152D01*
X874136Y1403104D01*
X870793Y1404118D01*
X870761Y1404161D01*
X868663Y1405770D01*
X866221Y1406782D01*
X864870Y1406959D01*
Y1397000D01*
Y1387041D01*
X866221Y1387218D01*
X868663Y1388230D01*
X870761Y1389839D01*
X870793Y1389882D01*
X874136Y1390896D01*
X874713Y1390848D01*
X876050Y1388347D01*
X877987Y1385987D01*
X878214Y1385800D01*
Y1383688D01*
Y1383761D01*
X876093Y1381640D01*
X873640D01*
Y1381640D01*
X864870D01*
Y1371600D01*
Y1361560D01*
X873640D01*
Y1361560D01*
X874138Y1361846D01*
X876658Y1360219D01*
X876539Y1359008D01*
X875651Y1358279D01*
X873527Y1355690D01*
X871948Y1352737D01*
X870976Y1349533D01*
X870648Y1346200D01*
X870976Y1342867D01*
X871948Y1339663D01*
X873527Y1336710D01*
X875651Y1334121D01*
X878240Y1331997D01*
X881193Y1330418D01*
X884397Y1329446D01*
X887730Y1329118D01*
X891063Y1329446D01*
X894267Y1330418D01*
X897220Y1331997D01*
X899809Y1334121D01*
X901933Y1336710D01*
X903512Y1339663D01*
X904484Y1342867D01*
X904812Y1346200D01*
X904484Y1349533D01*
X903512Y1352737D01*
X901933Y1355690D01*
X900851Y1357009D01*
Y1361608D01*
X901950Y1362947D01*
X903287Y1365448D01*
X903864Y1365496D01*
X907207Y1364482D01*
X907239Y1364439D01*
X909337Y1362830D01*
X911779Y1361818D01*
X913130Y1361641D01*
Y1371600D01*
X915670D01*
Y1361641D01*
X917021Y1361818D01*
X919463Y1362830D01*
X921561Y1364439D01*
X921593Y1364482D01*
X924936Y1365496D01*
X925513Y1365448D01*
X926850Y1362947D01*
X928787Y1360587D01*
X930218Y1359412D01*
Y1320800D01*
X930545Y1318320D01*
X931502Y1316009D01*
X933025Y1314025D01*
X933025Y1314025D01*
X933025Y1314025D01*
X950387Y1296662D01*
X949658Y1293752D01*
X948503Y1293402D01*
X945550Y1291823D01*
X942961Y1289699D01*
X940837Y1287110D01*
X939258Y1284157D01*
X938286Y1280953D01*
X937958Y1277620D01*
X938286Y1274287D01*
X939258Y1271083D01*
X940837Y1268130D01*
X942961Y1265541D01*
X945550Y1263417D01*
X948503Y1261838D01*
X951707Y1260866D01*
X955040Y1260538D01*
X956956Y1260726D01*
X959689Y1257993D01*
Y1217596D01*
X957434Y1215618D01*
X955460Y1215878D01*
X954772D01*
X953354Y1216465D01*
X949960Y1216912D01*
X927611D01*
X911003Y1233521D01*
X910834Y1235233D01*
X909862Y1238437D01*
X908283Y1241390D01*
X906159Y1243979D01*
X903570Y1246103D01*
X900617Y1247682D01*
X897413Y1248654D01*
X894080Y1248982D01*
X890747Y1248654D01*
X887543Y1247682D01*
X884590Y1246103D01*
X882001Y1243979D01*
X879877Y1241390D01*
X878298Y1238437D01*
X877326Y1235233D01*
X876998Y1231900D01*
X877326Y1228567D01*
X878298Y1225363D01*
X879877Y1222410D01*
X882001Y1219821D01*
X884590Y1217697D01*
X887543Y1216118D01*
X890747Y1215146D01*
X892459Y1214977D01*
X912908Y1194528D01*
X912908Y1194528D01*
X912908D01*
X912908Y1194528D01*
X912908D01*
X912908Y1194528D01*
Y1194528D01*
Y1194528D01*
D01*
D01*
X912908D01*
Y1194528D01*
X915624Y1192445D01*
X917476Y1191677D01*
X918786Y1191135D01*
X922180Y1190688D01*
X922180Y1190688D01*
X933619D01*
X935597Y1188432D01*
X935382Y1186800D01*
Y1180800D01*
X935692Y1178450D01*
X936599Y1176261D01*
X936784Y1176020D01*
X936599Y1175779D01*
X935692Y1173589D01*
X935382Y1171240D01*
Y1165240D01*
X935692Y1162890D01*
X936599Y1160701D01*
X938041Y1158821D01*
X939921Y1157378D01*
X941460Y1156741D01*
Y1153122D01*
X941125Y1152621D01*
X940851Y1151240D01*
Y1149510D01*
X959069D01*
Y1151240D01*
X958795Y1152621D01*
X958460Y1153122D01*
Y1156741D01*
X959999Y1157378D01*
X961879Y1158821D01*
X963322Y1160701D01*
X964228Y1162890D01*
X964538Y1165240D01*
Y1171240D01*
X964228Y1173589D01*
X963724Y1174807D01*
X977769Y1188851D01*
X979452Y1191045D01*
X980510Y1193599D01*
X980871Y1196340D01*
Y1262380D01*
X980510Y1265121D01*
X979890Y1266617D01*
X979452Y1267675D01*
X977769Y1269869D01*
X971934Y1275704D01*
X972122Y1277620D01*
X971794Y1280953D01*
X973151Y1282783D01*
X974798Y1282850D01*
X976363Y1282445D01*
X976690Y1279959D01*
X977748Y1277405D01*
X979431Y1275211D01*
X1140468Y1114174D01*
X1139504Y1111334D01*
X1137448Y1111063D01*
X1134640Y1109900D01*
X1132230Y1108050D01*
X1130380Y1105640D01*
X1129217Y1102832D01*
X1128988Y1101090D01*
X1140460D01*
Y1099820D01*
X1141730D01*
Y1088348D01*
X1143473Y1088577D01*
X1146280Y1089740D01*
X1148690Y1091590D01*
X1150540Y1094000D01*
X1151703Y1096807D01*
X1151974Y1098864D01*
X1154815Y1099828D01*
X1190928Y1063715D01*
X1189917Y1060890D01*
X1187927Y1060694D01*
X1184723Y1059722D01*
X1181770Y1058143D01*
X1179181Y1056019D01*
X1177057Y1053430D01*
X1175478Y1050477D01*
X1175460Y1050417D01*
X1172550Y1049688D01*
X1169685Y1052552D01*
X1169914Y1053307D01*
X1170242Y1056640D01*
X1169914Y1059973D01*
X1168942Y1063177D01*
X1167363Y1066130D01*
X1165239Y1068719D01*
X1162650Y1070843D01*
X1159697Y1072422D01*
X1156493Y1073394D01*
X1153160Y1073722D01*
X1149827Y1073394D01*
X1146623Y1072422D01*
X1143670Y1070843D01*
X1141081Y1068719D01*
X1138957Y1066130D01*
X1137378Y1063177D01*
X1136406Y1059973D01*
X1136078Y1056640D01*
X1136406Y1053307D01*
X1137378Y1050103D01*
X1138957Y1047150D01*
X1141081Y1044561D01*
X1143670Y1042437D01*
X1146449Y1040951D01*
Y1037951D01*
X1146210Y1037823D01*
X1143621Y1035699D01*
X1141497Y1033110D01*
X1141045Y1032266D01*
X1138135Y1031537D01*
X1137181Y1032175D01*
X1135800Y1032449D01*
X1131570D01*
Y1025840D01*
X1130300D01*
Y1024570D01*
X1121191D01*
Y1022840D01*
X1121465Y1021459D01*
X1121800Y1020958D01*
Y1017339D01*
X1120261Y1016702D01*
X1118381Y1015259D01*
X1116938Y1013379D01*
X1116032Y1011189D01*
X1115722Y1008840D01*
Y1002840D01*
X1116032Y1000490D01*
X1116938Y998301D01*
X1118381Y996421D01*
X1120261Y994978D01*
X1122450Y994072D01*
X1124800Y993762D01*
X1127400D01*
X1130431Y990731D01*
X1132625Y989048D01*
X1132868Y988948D01*
X1132476Y985973D01*
X1131301Y985818D01*
X1129111Y984911D01*
X1127231Y983469D01*
X1125788Y981589D01*
X1124882Y979399D01*
X1124572Y977050D01*
Y974585D01*
X1121801Y973437D01*
X1008249Y1086989D01*
X1006055Y1088672D01*
X1004997Y1089110D01*
X1003501Y1089730D01*
X1000760Y1090091D01*
X840047D01*
X797991Y1132147D01*
Y1164013D01*
X822557Y1188580D01*
X853580D01*
Y1231061D01*
X855359Y1232521D01*
X857483Y1235110D01*
X859062Y1238063D01*
X860034Y1241267D01*
X860362Y1244600D01*
X860034Y1247933D01*
X859062Y1251137D01*
X857483Y1254090D01*
X855359Y1256679D01*
X852770Y1258803D01*
X849817Y1260382D01*
X846613Y1261354D01*
X843280Y1261682D01*
X839947Y1261354D01*
X836743Y1260382D01*
X833790Y1258803D01*
X831201Y1256679D01*
X829077Y1254090D01*
X827498Y1251137D01*
X826526Y1247933D01*
X826357Y1246221D01*
X821308Y1241172D01*
X819224Y1238456D01*
X818570Y1236875D01*
X817915Y1235294D01*
X817821Y1234580D01*
X807580D01*
Y1229667D01*
X680592D01*
X652869Y1257390D01*
X650129Y1259639D01*
X647002Y1261310D01*
X643609Y1262340D01*
X640080Y1262687D01*
X636551Y1262340D01*
X633158Y1261310D01*
X630031Y1259639D01*
X627684Y1257712D01*
X622712D01*
Y1264569D01*
X672212Y1314068D01*
X672212Y1314068D01*
X674296Y1316784D01*
X675222Y1319020D01*
X675605Y1319946D01*
X676052Y1323340D01*
X676052Y1323340D01*
X676052Y1323340D01*
Y1323340D01*
Y1325220D01*
X677143Y1326550D01*
X678722Y1329503D01*
X679694Y1332707D01*
X680022Y1336040D01*
X679694Y1339373D01*
X678722Y1342577D01*
X677143Y1345530D01*
X675019Y1348119D01*
X672430Y1350243D01*
X669477Y1351822D01*
X666273Y1352794D01*
X662940Y1353122D01*
X659607Y1352794D01*
X656403Y1351822D01*
X653450Y1350243D01*
X650861Y1348119D01*
X648737Y1345530D01*
X647158Y1342577D01*
X646186Y1339373D01*
X645858Y1336040D01*
X646186Y1332707D01*
X647158Y1329503D01*
X648343Y1327286D01*
X600328Y1279272D01*
X598245Y1276556D01*
X597590Y1274975D01*
X596935Y1273394D01*
X596488Y1270000D01*
X596488Y1270000D01*
Y1253844D01*
X596232Y1253532D01*
X595238Y1251671D01*
X592467Y1251444D01*
X592163Y1251536D01*
X591717Y1252117D01*
X589515Y1253807D01*
X586951Y1254869D01*
X585470Y1255064D01*
Y1244600D01*
Y1234136D01*
X586951Y1234331D01*
X589515Y1235393D01*
X591717Y1237083D01*
X592163Y1237664D01*
X592467Y1237756D01*
X595238Y1237529D01*
X596232Y1235668D01*
X598232Y1233232D01*
X600668Y1231232D01*
X603447Y1229746D01*
X606464Y1228831D01*
X609600Y1228523D01*
X612737Y1228831D01*
X615753Y1229746D01*
X618532Y1231232D01*
X618844Y1231488D01*
X627613D01*
X660311Y1198791D01*
X661816Y1197555D01*
X663051Y1196541D01*
X666178Y1194870D01*
X666178Y1194870D01*
X666178Y1194870D01*
D01*
X666178Y1194870D01*
X666178Y1194870D01*
X669571Y1193840D01*
X673100Y1193493D01*
X793596D01*
X794744Y1190721D01*
X779911Y1175889D01*
X778228Y1173695D01*
X777790Y1172637D01*
X777170Y1171141D01*
X776809Y1168400D01*
Y1127760D01*
X777170Y1125019D01*
X777790Y1123523D01*
X778228Y1122465D01*
X779911Y1120271D01*
X828171Y1072011D01*
X830365Y1070328D01*
X832919Y1069270D01*
X835660Y1068909D01*
X996373D01*
X1003909Y1061374D01*
X1002761Y1058602D01*
X593249D01*
X581800Y1070051D01*
Y1102500D01*
X571912D01*
Y1228600D01*
X574800D01*
Y1235136D01*
X577491Y1236463D01*
X578885Y1235393D01*
X581449Y1234331D01*
X582930Y1234136D01*
Y1244600D01*
Y1255064D01*
X581449Y1254869D01*
X578885Y1253807D01*
X577491Y1252737D01*
X574800Y1254064D01*
Y1260600D01*
X561343D01*
X559212Y1262731D01*
Y1284917D01*
X562053Y1285882D01*
X562170Y1285730D01*
X564580Y1283880D01*
X567388Y1282717D01*
X569130Y1282488D01*
Y1293960D01*
Y1305432D01*
X567388Y1305203D01*
X564580Y1304040D01*
X562170Y1302190D01*
X562053Y1302038D01*
X559212Y1303003D01*
Y1340769D01*
X733031Y1514588D01*
X908619D01*
X911940Y1512040D01*
X910777Y1509232D01*
X910548Y1507490D01*
X933492D01*
X933263Y1509232D01*
X932100Y1512040D01*
X935421Y1514588D01*
X994169D01*
X1006728Y1502028D01*
X1009444Y1499944D01*
X1012606Y1498635D01*
X1016000Y1498188D01*
X1019394Y1498635D01*
X1022556Y1499944D01*
X1023553Y1500709D01*
X1038860D01*
X1041601Y1501070D01*
X1043097Y1501690D01*
X1044155Y1502128D01*
X1046349Y1503811D01*
X1061027Y1518489D01*
X1079500D01*
X1082241Y1518850D01*
X1084795Y1519908D01*
X1086989Y1521591D01*
X1088672Y1523785D01*
X1089730Y1526339D01*
X1090091Y1529080D01*
Y1529113D01*
X1092041Y1529370D01*
X1094595Y1530428D01*
X1096789Y1532111D01*
X1099689Y1535011D01*
X1101372Y1537205D01*
X1101810Y1538263D01*
X1102267Y1539365D01*
X1105209Y1539951D01*
X1190500Y1454660D01*
X1190500D01*
X1190500Y1454660D01*
X1190500Y1454660D01*
Y1454660D01*
X1192954Y1452776D01*
X1195813Y1451592D01*
X1198880Y1451189D01*
X1264920D01*
X1267987Y1451592D01*
X1270008Y1452430D01*
X1270846Y1452776D01*
X1273300Y1454660D01*
X1273300Y1454660D01*
X1273300Y1454660D01*
X1284840Y1466200D01*
X1286724Y1468654D01*
X1287908Y1471513D01*
X1288311Y1474580D01*
Y1479129D01*
X1323511D01*
X1345440Y1457200D01*
X1345440Y1457200D01*
X1347894Y1455316D01*
X1349078Y1454826D01*
X1350753Y1454132D01*
X1353820Y1453729D01*
X1353820Y1453729D01*
X1399540D01*
X1402607Y1454132D01*
X1404628Y1454970D01*
X1405466Y1455316D01*
X1407920Y1457200D01*
X1407920Y1457200D01*
X1407920Y1457200D01*
X1413000Y1462280D01*
X1413000Y1462280D01*
X1414884Y1464734D01*
X1416068Y1467593D01*
X1416068Y1467593D01*
X1416068Y1467593D01*
Y1467593D01*
X1416471Y1470660D01*
X1416471Y1470660D01*
Y1582420D01*
X1416068Y1585487D01*
X1414884Y1588346D01*
X1413000Y1590800D01*
X1369820Y1633980D01*
X1367366Y1635864D01*
X1366528Y1636210D01*
X1364507Y1637048D01*
X1361440Y1637451D01*
X1339789D01*
X1292080Y1685161D01*
Y1687230D01*
X1291891Y1688667D01*
Y1692316D01*
X1292172Y1692353D01*
X1294848Y1693461D01*
X1297145Y1695225D01*
X1298909Y1697522D01*
X1300017Y1700198D01*
X1300395Y1703070D01*
X1302245Y1705179D01*
X1320093D01*
X1321880Y1702770D01*
X1321826Y1702593D01*
X1321498Y1699260D01*
X1321826Y1695927D01*
X1322798Y1692723D01*
X1324377Y1689770D01*
X1326501Y1687181D01*
X1329090Y1685057D01*
X1332043Y1683478D01*
X1335247Y1682506D01*
X1338580Y1682178D01*
X1341913Y1682506D01*
X1345117Y1683478D01*
X1345466Y1683665D01*
X1348237Y1682516D01*
X1349348Y1678856D01*
X1351484Y1674860D01*
X1354358Y1671358D01*
X1357860Y1668484D01*
X1361856Y1666348D01*
X1366191Y1665033D01*
X1370700Y1664589D01*
X1375209Y1665033D01*
X1379544Y1666348D01*
X1383540Y1668484D01*
X1387042Y1671358D01*
X1389916Y1674860D01*
X1392052Y1678856D01*
X1393367Y1683191D01*
X1393811Y1687700D01*
X1393367Y1692209D01*
X1392052Y1696544D01*
X1389916Y1700540D01*
X1387042Y1704042D01*
X1385091Y1705643D01*
X1385430Y1706085D01*
X1386362Y1708335D01*
X1386680Y1710750D01*
Y1718250D01*
X1386362Y1720665D01*
X1385430Y1722915D01*
X1384981Y1723500D01*
X1385430Y1724085D01*
X1386362Y1726335D01*
X1386680Y1728750D01*
Y1736250D01*
X1386362Y1738665D01*
X1385430Y1740915D01*
X1383947Y1742847D01*
X1382415Y1744023D01*
X1382545Y1745608D01*
X1383259Y1747334D01*
X1383540Y1747484D01*
X1387042Y1750358D01*
X1389916Y1753860D01*
X1392052Y1757856D01*
X1393367Y1762191D01*
X1393811Y1766700D01*
X1393367Y1771209D01*
X1392052Y1775544D01*
X1389916Y1779540D01*
X1387042Y1783042D01*
X1383540Y1785916D01*
X1379544Y1788052D01*
X1375209Y1789367D01*
X1370700Y1789811D01*
X1366191Y1789367D01*
X1361856Y1788052D01*
X1357860Y1785916D01*
X1354358Y1783042D01*
X1351484Y1779540D01*
X1349348Y1775544D01*
X1348033Y1771209D01*
X1347589Y1766700D01*
X1348033Y1762191D01*
X1349348Y1757856D01*
X1351484Y1753860D01*
X1354358Y1750358D01*
X1357860Y1747484D01*
X1359801Y1746446D01*
X1360046Y1743456D01*
X1360046D01*
X1359120Y1743091D01*
X1356379Y1742730D01*
X1353825Y1741672D01*
X1351631Y1739989D01*
X1338003Y1726361D01*
X1331667D01*
X1329880Y1728770D01*
X1329934Y1728947D01*
X1330262Y1732280D01*
X1329934Y1735613D01*
X1328962Y1738817D01*
X1327383Y1741770D01*
X1325259Y1744359D01*
X1322670Y1746483D01*
X1319717Y1748062D01*
X1316513Y1749034D01*
X1313180Y1749362D01*
X1309847Y1749034D01*
X1306643Y1748062D01*
X1303690Y1746483D01*
X1301101Y1744359D01*
X1298977Y1741770D01*
X1298466Y1740816D01*
X1295481Y1740522D01*
X1294948Y1741170D01*
X1294519Y1743332D01*
X1293294Y1745164D01*
X1291462Y1746389D01*
X1289300Y1746819D01*
X1282570D01*
Y1741170D01*
X1281300D01*
Y1739900D01*
X1267904D01*
X1268081Y1739008D01*
X1267806Y1738101D01*
X1267753Y1738078D01*
X1265455Y1736315D01*
X1263691Y1734017D01*
X1262583Y1731342D01*
X1262205Y1728470D01*
X1262583Y1725598D01*
X1263691Y1722923D01*
X1264307Y1722120D01*
X1263691Y1721317D01*
X1262583Y1718642D01*
X1262205Y1715770D01*
X1262583Y1712898D01*
X1263691Y1710222D01*
X1264307Y1709420D01*
X1263691Y1708618D01*
X1262583Y1705942D01*
X1262205Y1703070D01*
X1262583Y1700198D01*
X1263691Y1697522D01*
X1265455Y1695225D01*
X1267202Y1693884D01*
X1266861Y1692011D01*
X1265806Y1690884D01*
X1264750Y1691094D01*
X1262270D01*
Y1681480D01*
Y1671866D01*
X1264750D01*
X1266229Y1672160D01*
X1266787Y1671991D01*
X1267170Y1671065D01*
X1268653Y1669133D01*
X1270585Y1667650D01*
X1272835Y1666718D01*
X1275250Y1666400D01*
X1277319D01*
X1326500Y1617220D01*
X1328954Y1615336D01*
X1331813Y1614152D01*
X1334880Y1613749D01*
X1334880Y1613749D01*
X1356531D01*
X1369819Y1600461D01*
X1368808Y1597636D01*
X1367091Y1597467D01*
X1362756Y1596152D01*
X1358760Y1594016D01*
X1355258Y1591142D01*
X1352384Y1587640D01*
X1350248Y1583644D01*
X1348933Y1579309D01*
X1348489Y1574800D01*
X1348879Y1570838D01*
X1346758Y1568717D01*
X1343660Y1569022D01*
X1340327Y1568694D01*
X1337123Y1567722D01*
X1334170Y1566143D01*
X1331581Y1564019D01*
X1329457Y1561430D01*
X1327878Y1558477D01*
X1327502Y1557237D01*
X1325880Y1557451D01*
X1315720D01*
X1312979Y1557090D01*
X1310425Y1556032D01*
X1308231Y1554349D01*
X1302443Y1548561D01*
X1296680D01*
X1295991Y1549400D01*
X1267904D01*
X1268081Y1548508D01*
X1267806Y1547601D01*
X1267753Y1547578D01*
X1265455Y1545815D01*
X1263691Y1543517D01*
X1262583Y1540842D01*
X1262205Y1537970D01*
X1262583Y1535098D01*
X1263691Y1532422D01*
X1264307Y1531620D01*
X1263691Y1530818D01*
X1262583Y1528142D01*
X1262205Y1525270D01*
X1262583Y1522398D01*
X1263691Y1519722D01*
X1264307Y1518920D01*
X1263691Y1518118D01*
X1262583Y1515442D01*
X1262205Y1512570D01*
X1262583Y1509698D01*
X1263691Y1507023D01*
X1265455Y1504725D01*
D01*
X1266113Y1503327D01*
X1264630Y1501395D01*
X1264247Y1500469D01*
X1263689Y1500300D01*
X1262210Y1500594D01*
X1259730D01*
Y1490980D01*
Y1481366D01*
X1262210D01*
X1262479Y1481419D01*
X1263893Y1478773D01*
X1260011Y1474891D01*
X1203789D01*
X1171906Y1506774D01*
X1173189Y1509487D01*
X1173480Y1509458D01*
X1176813Y1509786D01*
X1180017Y1510758D01*
X1182970Y1512337D01*
X1182973Y1512339D01*
X1184695Y1511018D01*
X1187249Y1509960D01*
X1187249Y1509960D01*
X1187249Y1509960D01*
D01*
X1187304Y1509875D01*
X1187206Y1509553D01*
X1186878Y1506220D01*
X1187206Y1502887D01*
X1188178Y1499683D01*
X1189757Y1496730D01*
X1191881Y1494141D01*
X1194470Y1492017D01*
X1197423Y1490438D01*
X1200627Y1489466D01*
X1203960Y1489138D01*
X1207293Y1489466D01*
X1210497Y1490438D01*
X1213450Y1492017D01*
X1216039Y1494141D01*
X1218163Y1496730D01*
X1219742Y1499683D01*
X1220053Y1500709D01*
X1232030D01*
X1234771Y1501070D01*
X1235748Y1501475D01*
X1241300D01*
X1244172Y1501853D01*
X1246848Y1502961D01*
X1249145Y1504725D01*
X1250909Y1507023D01*
X1252017Y1509698D01*
X1252395Y1512570D01*
X1252017Y1515442D01*
X1250909Y1518118D01*
X1250293Y1518920D01*
X1250909Y1519722D01*
X1252017Y1522398D01*
X1252395Y1525270D01*
X1252017Y1528142D01*
X1250909Y1530818D01*
X1250293Y1531620D01*
X1250909Y1532422D01*
X1252017Y1535098D01*
X1252395Y1537970D01*
X1252017Y1540842D01*
X1250909Y1543517D01*
X1250293Y1544320D01*
X1250909Y1545123D01*
X1252017Y1547798D01*
X1252395Y1550670D01*
X1252017Y1553542D01*
X1250909Y1556217D01*
X1249145Y1558515D01*
X1246848Y1560278D01*
X1244172Y1561387D01*
X1241300Y1561765D01*
X1225300D01*
X1223779Y1561565D01*
X1222322Y1564187D01*
X1223243Y1565310D01*
X1224822Y1568263D01*
X1225794Y1571467D01*
X1226122Y1574800D01*
X1225934Y1576716D01*
X1240789Y1591571D01*
X1242472Y1593765D01*
X1243530Y1596319D01*
X1243891Y1599060D01*
X1243891Y1599060D01*
X1243891Y1599060D01*
Y1599060D01*
Y1692316D01*
X1244172Y1692353D01*
X1246848Y1693461D01*
X1249145Y1695225D01*
X1250909Y1697522D01*
X1252017Y1700198D01*
X1252395Y1703070D01*
X1252017Y1705942D01*
X1250909Y1708618D01*
X1250293Y1709420D01*
X1250909Y1710222D01*
X1252017Y1712898D01*
X1252395Y1715770D01*
X1252017Y1718642D01*
X1250909Y1721317D01*
X1250293Y1722120D01*
X1250909Y1722923D01*
X1252017Y1725598D01*
X1252395Y1728470D01*
X1252017Y1731342D01*
X1250909Y1734017D01*
X1250293Y1734820D01*
X1250909Y1735623D01*
X1252017Y1738298D01*
X1252395Y1741170D01*
X1252017Y1744042D01*
X1250909Y1746718D01*
X1249145Y1749015D01*
X1246848Y1750779D01*
X1244172Y1751887D01*
X1241300Y1752265D01*
X1225300D01*
X1222428Y1751887D01*
X1219753Y1750779D01*
X1217455Y1749015D01*
X1215692Y1746718D01*
X1214583Y1744042D01*
X1214205Y1741170D01*
X1212355Y1739061D01*
X1205230D01*
X1202489Y1738700D01*
X1199935Y1737642D01*
X1197741Y1735959D01*
X1179961Y1718179D01*
X1178278Y1715985D01*
X1177840Y1714927D01*
X1177220Y1713431D01*
X1176859Y1710690D01*
Y1562100D01*
X1177220Y1559359D01*
X1177840Y1557863D01*
X1178278Y1556805D01*
X1179961Y1554611D01*
X1192147Y1542426D01*
X1191958Y1540510D01*
X1192286Y1537177D01*
X1192459Y1536608D01*
X1189992Y1534901D01*
X1188935Y1535712D01*
X1187877Y1536150D01*
X1187435Y1536333D01*
X1185559Y1538619D01*
X1182970Y1540743D01*
X1180017Y1542322D01*
X1176813Y1543294D01*
X1173480Y1543622D01*
X1170147Y1543294D01*
X1166943Y1542322D01*
X1163990Y1540743D01*
X1161401Y1538619D01*
X1159277Y1536030D01*
X1157698Y1533077D01*
X1156726Y1529873D01*
X1156398Y1526540D01*
X1156426Y1526249D01*
X1153715Y1524966D01*
X1092960Y1585720D01*
X1090506Y1587604D01*
X1089669Y1587950D01*
X1087647Y1588788D01*
X1084580Y1589191D01*
X1068748D01*
X1068367Y1589687D01*
X1066435Y1591170D01*
X1064185Y1592102D01*
X1061770Y1592420D01*
X1054270D01*
X1051855Y1592102D01*
X1049605Y1591170D01*
X1047673Y1589687D01*
X1046190Y1587755D01*
X1045807Y1586829D01*
X1045249Y1586660D01*
X1043770Y1586954D01*
X1041290D01*
Y1577340D01*
X1040020D01*
Y1576070D01*
X1032406D01*
Y1571590D01*
X1032700Y1570111D01*
X1033538Y1568858D01*
X1034791Y1568020D01*
X1036270Y1567726D01*
X1039088D01*
X1041171Y1566128D01*
X1041770Y1565231D01*
X1041025Y1563434D01*
X1040724Y1561150D01*
Y1556650D01*
X1041025Y1554366D01*
X1041907Y1552237D01*
X1043309Y1550409D01*
Y1548391D01*
X1041907Y1546563D01*
X1041257Y1544993D01*
X1038314Y1545578D01*
Y1549450D01*
X1038020Y1550929D01*
X1037182Y1552182D01*
X1035929Y1553020D01*
X1034450Y1553314D01*
X1029970D01*
Y1545700D01*
X1028700D01*
Y1544430D01*
X1019086D01*
Y1541950D01*
X1019380Y1540471D01*
X1019211Y1539913D01*
X1018285Y1539530D01*
X1016353Y1538047D01*
X1015647D01*
X1013715Y1539530D01*
X1012789Y1539913D01*
X1012620Y1540471D01*
X1012914Y1541950D01*
Y1544430D01*
X993686D01*
Y1541950D01*
X992752Y1540812D01*
X988448D01*
X987514Y1541950D01*
Y1544430D01*
X968286D01*
Y1541950D01*
X967352Y1540812D01*
X763175D01*
X762027Y1543584D01*
X898272Y1679828D01*
X900356Y1682544D01*
X901010Y1684125D01*
X901665Y1685706D01*
X902112Y1689100D01*
Y1866125D01*
X904824Y1867407D01*
X905747Y1866650D01*
X908440Y1865211D01*
X911361Y1864324D01*
X914400Y1864025D01*
X917439Y1864324D01*
X920360Y1865211D01*
X923053Y1866650D01*
X925413Y1868587D01*
X925600Y1868814D01*
X928600D01*
X928787Y1868587D01*
X931147Y1866650D01*
X933840Y1865211D01*
X936761Y1864324D01*
X939800Y1864025D01*
X942839Y1864324D01*
X945760Y1865211D01*
X948453Y1866650D01*
X950813Y1868587D01*
X951000Y1868814D01*
X954000D01*
X954187Y1868587D01*
X956547Y1866650D01*
X959240Y1865211D01*
X962161Y1864324D01*
X965200Y1864025D01*
X968239Y1864324D01*
X971160Y1865211D01*
X973853Y1866650D01*
X976213Y1868587D01*
X976400Y1868814D01*
X979400D01*
X979587Y1868587D01*
X981947Y1866650D01*
X984640Y1865211D01*
X987561Y1864324D01*
X990600Y1864025D01*
X993639Y1864324D01*
X996560Y1865211D01*
X999253Y1866650D01*
X1001613Y1868587D01*
X1001800Y1868814D01*
X1004800D01*
X1004987Y1868587D01*
X1007347Y1866650D01*
X1010040Y1865211D01*
X1012962Y1864324D01*
X1016000Y1864025D01*
X1019038Y1864324D01*
X1021960Y1865211D01*
X1024653Y1866650D01*
X1027013Y1868587D01*
X1027200Y1868814D01*
X1030200D01*
X1030387Y1868587D01*
X1032747Y1866650D01*
X1035440Y1865211D01*
X1038362Y1864324D01*
X1041400Y1864025D01*
X1044438Y1864324D01*
X1047360Y1865211D01*
X1050053Y1866650D01*
X1052413Y1868587D01*
X1052600Y1868814D01*
X1055600D01*
X1055787Y1868587D01*
X1058147Y1866650D01*
X1060840Y1865211D01*
X1063762Y1864324D01*
X1066800Y1864025D01*
X1069838Y1864324D01*
X1072760Y1865211D01*
X1075453Y1866650D01*
X1077813Y1868587D01*
X1078000Y1868814D01*
X1081000D01*
X1081187Y1868587D01*
X1083547Y1866650D01*
X1086240Y1865211D01*
X1089162Y1864324D01*
X1092200Y1864025D01*
X1095238Y1864324D01*
X1098160Y1865211D01*
X1100853Y1866650D01*
X1103213Y1868587D01*
X1103400Y1868814D01*
X1106400D01*
X1106587Y1868587D01*
X1108947Y1866650D01*
X1111640Y1865211D01*
X1114561Y1864324D01*
X1117600Y1864025D01*
X1120639Y1864324D01*
X1123560Y1865211D01*
X1126253Y1866650D01*
X1128613Y1868587D01*
X1128800Y1868814D01*
X1131800D01*
X1131987Y1868587D01*
X1134347Y1866650D01*
X1137040Y1865211D01*
X1139961Y1864324D01*
X1143000Y1864025D01*
X1146039Y1864324D01*
X1148960Y1865211D01*
X1151653Y1866650D01*
X1154013Y1868587D01*
X1154200Y1868814D01*
X1157200D01*
X1157387Y1868587D01*
X1159747Y1866650D01*
X1162440Y1865211D01*
X1165361Y1864324D01*
X1168400Y1864025D01*
X1171439Y1864324D01*
X1174360Y1865211D01*
X1177053Y1866650D01*
X1179413Y1868587D01*
X1179600Y1868814D01*
X1182600D01*
X1182787Y1868587D01*
X1185147Y1866650D01*
X1187840Y1865211D01*
X1190761Y1864324D01*
X1193800Y1864025D01*
X1196839Y1864324D01*
X1199760Y1865211D01*
X1202453Y1866650D01*
X1204813Y1868587D01*
X1205000Y1868814D01*
X1208000D01*
X1208187Y1868587D01*
X1210547Y1866650D01*
X1213240Y1865211D01*
X1216161Y1864324D01*
X1219200Y1864025D01*
X1222238Y1864324D01*
X1225160Y1865211D01*
X1227853Y1866650D01*
X1230213Y1868587D01*
X1230400Y1868814D01*
X1233400D01*
X1233587Y1868587D01*
X1235947Y1866650D01*
X1238640Y1865211D01*
X1241562Y1864324D01*
X1244600Y1864025D01*
X1247638Y1864324D01*
X1250560Y1865211D01*
X1253253Y1866650D01*
X1255613Y1868587D01*
X1255800Y1868814D01*
X1258800D01*
X1258987Y1868587D01*
X1261347Y1866650D01*
X1264040Y1865211D01*
X1266962Y1864324D01*
X1270000Y1864025D01*
X1273038Y1864324D01*
X1275960Y1865211D01*
X1278653Y1866650D01*
X1281013Y1868587D01*
X1281200Y1868814D01*
X1284200D01*
X1284387Y1868587D01*
X1286747Y1866650D01*
X1289440Y1865211D01*
X1292361Y1864324D01*
X1295400Y1864025D01*
X1298439Y1864324D01*
X1301360Y1865211D01*
X1304053Y1866650D01*
X1306413Y1868587D01*
X1306600Y1868814D01*
X1309600D01*
X1309787Y1868587D01*
X1312147Y1866650D01*
X1314840Y1865211D01*
X1317762Y1864324D01*
X1320800Y1864025D01*
X1323839Y1864324D01*
X1326760Y1865211D01*
X1329453Y1866650D01*
X1331813Y1868587D01*
X1332000Y1868814D01*
X1335000D01*
X1335187Y1868587D01*
X1337547Y1866650D01*
X1338156Y1866324D01*
X1338596Y1863357D01*
X1332793Y1857553D01*
X1330483Y1858254D01*
X1327150Y1858582D01*
X1323817Y1858254D01*
X1320613Y1857282D01*
X1317660Y1855703D01*
X1315071Y1853579D01*
X1312947Y1850990D01*
X1311368Y1848037D01*
X1310396Y1844833D01*
X1310068Y1841500D01*
X1310396Y1838167D01*
X1311368Y1834963D01*
X1312947Y1832010D01*
X1315071Y1829421D01*
X1317660Y1827297D01*
X1320613Y1825718D01*
X1323817Y1824746D01*
X1327150Y1824418D01*
X1330483Y1824746D01*
X1333687Y1825718D01*
X1336640Y1827297D01*
X1339229Y1829421D01*
X1341353Y1832010D01*
X1342023Y1833263D01*
X1372915Y1864155D01*
X1374639Y1864324D01*
X1377560Y1865211D01*
X1380253Y1866650D01*
X1382613Y1868587D01*
X1382800Y1868814D01*
X1385800D01*
X1385987Y1868587D01*
X1388347Y1866650D01*
X1391040Y1865211D01*
X1393961Y1864324D01*
X1397000Y1864025D01*
X1400038Y1864324D01*
X1402960Y1865211D01*
X1405653Y1866650D01*
X1408013Y1868587D01*
X1408200Y1868814D01*
X1411200D01*
X1411387Y1868587D01*
X1413747Y1866650D01*
X1416440Y1865211D01*
X1419362Y1864324D01*
X1422400Y1864025D01*
X1425439Y1864324D01*
X1428360Y1865211D01*
X1431053Y1866650D01*
X1433413Y1868587D01*
X1433600Y1868814D01*
X1436600D01*
X1436787Y1868587D01*
X1439147Y1866650D01*
X1441840Y1865211D01*
X1444762Y1864324D01*
X1447800Y1864025D01*
X1450838Y1864324D01*
X1453760Y1865211D01*
X1456453Y1866650D01*
X1458813Y1868587D01*
X1460750Y1870947D01*
X1462087Y1873448D01*
X1462664Y1873496D01*
X1466007Y1872482D01*
X1466039Y1872439D01*
X1468137Y1870830D01*
X1470579Y1869818D01*
X1471930Y1869641D01*
Y1879600D01*
Y1889559D01*
X1470579Y1889382D01*
X1468137Y1888370D01*
X1466039Y1886761D01*
X1466007Y1886718D01*
X1462664Y1885704D01*
X1462087Y1885752D01*
X1460750Y1888253D01*
X1458813Y1890613D01*
X1458586Y1890800D01*
Y1893800D01*
X1458813Y1893987D01*
X1460750Y1896347D01*
X1462087Y1898848D01*
X1462664Y1898896D01*
X1466007Y1897882D01*
X1466039Y1897839D01*
X1468137Y1896230D01*
X1470579Y1895218D01*
X1471930Y1895041D01*
Y1905000D01*
Y1914959D01*
X1470579Y1914782D01*
X1468137Y1913770D01*
X1466039Y1912161D01*
X1466007Y1912118D01*
X1462664Y1911104D01*
X1462087Y1911152D01*
X1460750Y1913653D01*
X1458813Y1916013D01*
X1456453Y1917950D01*
X1453760Y1919389D01*
X1450838Y1920276D01*
X1447800Y1920575D01*
X1444762Y1920276D01*
X1441840Y1919389D01*
X1439147Y1917950D01*
X1436787Y1916013D01*
X1436600Y1915786D01*
X1433600D01*
X1433413Y1916013D01*
X1431053Y1917950D01*
X1428360Y1919389D01*
X1425439Y1920276D01*
X1422400Y1920575D01*
X1419362Y1920276D01*
X1416440Y1919389D01*
X1413747Y1917950D01*
X1411387Y1916013D01*
X1411200Y1915786D01*
X1408200D01*
X1408013Y1916013D01*
X1406321Y1917402D01*
Y1927260D01*
X1407809Y1928481D01*
X1409933Y1931070D01*
X1411512Y1934023D01*
X1412484Y1937227D01*
X1412812Y1940560D01*
X1412484Y1943893D01*
X1411512Y1947097D01*
X1411112Y1947845D01*
X1412655Y1950418D01*
X1496418D01*
Y1738727D01*
D02*
G37*
G36*
X1380348Y1947845D02*
X1379948Y1947097D01*
X1378976Y1943893D01*
X1378648Y1940560D01*
X1378976Y1937227D01*
X1379948Y1934023D01*
X1381527Y1931070D01*
X1383651Y1928481D01*
X1385139Y1927260D01*
Y1918086D01*
X1383304Y1916580D01*
X1382427Y1916166D01*
X1380253Y1917950D01*
X1377560Y1919389D01*
X1374639Y1920276D01*
X1371600Y1920575D01*
X1368562Y1920276D01*
X1365640Y1919389D01*
X1362947Y1917950D01*
X1360587Y1916013D01*
X1360400Y1915786D01*
X1357400D01*
X1357213Y1916013D01*
X1354853Y1917950D01*
X1352160Y1919389D01*
X1349238Y1920276D01*
X1346200Y1920575D01*
X1343161Y1920276D01*
X1340240Y1919389D01*
X1337547Y1917950D01*
X1335187Y1916013D01*
X1335000Y1915786D01*
X1332000D01*
X1331813Y1916013D01*
X1329453Y1917950D01*
X1326760Y1919389D01*
X1323839Y1920276D01*
X1320800Y1920575D01*
X1317762Y1920276D01*
X1314840Y1919389D01*
X1312147Y1917950D01*
X1309787Y1916013D01*
X1309600Y1915786D01*
X1306600D01*
X1306413Y1916013D01*
X1304053Y1917950D01*
X1301360Y1919389D01*
X1298439Y1920276D01*
X1295400Y1920575D01*
X1292361Y1920276D01*
X1289440Y1919389D01*
X1286747Y1917950D01*
X1284387Y1916013D01*
X1284200Y1915786D01*
X1281200D01*
X1281013Y1916013D01*
X1278653Y1917950D01*
X1275960Y1919389D01*
X1273038Y1920276D01*
X1270000Y1920575D01*
X1266962Y1920276D01*
X1264040Y1919389D01*
X1261347Y1917950D01*
X1258987Y1916013D01*
X1258800Y1915786D01*
X1255800D01*
X1255613Y1916013D01*
X1253253Y1917950D01*
X1250560Y1919389D01*
X1247638Y1920276D01*
X1244600Y1920575D01*
X1241562Y1920276D01*
X1238640Y1919389D01*
X1235947Y1917950D01*
X1233587Y1916013D01*
X1233400Y1915786D01*
X1230400D01*
X1230213Y1916013D01*
X1227853Y1917950D01*
X1225160Y1919389D01*
X1222238Y1920276D01*
X1219200Y1920575D01*
X1216161Y1920276D01*
X1213240Y1919389D01*
X1210547Y1917950D01*
X1208187Y1916013D01*
X1208000Y1915786D01*
X1205000D01*
X1204813Y1916013D01*
X1202453Y1917950D01*
X1199760Y1919389D01*
X1196839Y1920276D01*
X1193800Y1920575D01*
X1190761Y1920276D01*
X1187840Y1919389D01*
X1185147Y1917950D01*
X1182787Y1916013D01*
X1182600Y1915786D01*
X1179600D01*
X1179413Y1916013D01*
X1177053Y1917950D01*
X1174360Y1919389D01*
X1171439Y1920276D01*
X1168400Y1920575D01*
X1165361Y1920276D01*
X1162440Y1919389D01*
X1159747Y1917950D01*
X1157387Y1916013D01*
X1157200Y1915786D01*
X1154200D01*
X1154013Y1916013D01*
X1151653Y1917950D01*
X1148960Y1919389D01*
X1146039Y1920276D01*
X1143000Y1920575D01*
X1139961Y1920276D01*
X1137040Y1919389D01*
X1134347Y1917950D01*
X1131987Y1916013D01*
X1131800Y1915786D01*
X1128800D01*
X1128613Y1916013D01*
X1126253Y1917950D01*
X1123560Y1919389D01*
X1120639Y1920276D01*
X1117600Y1920575D01*
X1114561Y1920276D01*
X1111640Y1919389D01*
X1108947Y1917950D01*
X1106587Y1916013D01*
X1106400Y1915786D01*
X1103400D01*
X1103213Y1916013D01*
X1100853Y1917950D01*
X1098160Y1919389D01*
X1095238Y1920276D01*
X1092200Y1920575D01*
X1089162Y1920276D01*
X1086240Y1919389D01*
X1083547Y1917950D01*
X1081187Y1916013D01*
X1081000Y1915786D01*
X1078000D01*
X1077813Y1916013D01*
X1075453Y1917950D01*
X1072760Y1919389D01*
X1069838Y1920276D01*
X1066800Y1920575D01*
X1063762Y1920276D01*
X1060840Y1919389D01*
X1058147Y1917950D01*
X1055787Y1916013D01*
X1055600Y1915786D01*
X1052600D01*
X1052413Y1916013D01*
X1050053Y1917950D01*
X1047360Y1919389D01*
X1044438Y1920276D01*
X1041400Y1920575D01*
X1038362Y1920276D01*
X1035440Y1919389D01*
X1032747Y1917950D01*
X1030387Y1916013D01*
X1030200Y1915786D01*
X1027200D01*
X1027013Y1916013D01*
X1024653Y1917950D01*
X1021960Y1919389D01*
X1019038Y1920276D01*
X1016000Y1920575D01*
X1012962Y1920276D01*
X1010040Y1919389D01*
X1007347Y1917950D01*
X1004987Y1916013D01*
X1004800Y1915786D01*
X1001800D01*
X1001613Y1916013D01*
X999253Y1917950D01*
X996560Y1919389D01*
X993639Y1920276D01*
X990600Y1920575D01*
X987561Y1920276D01*
X984640Y1919389D01*
X981947Y1917950D01*
X979587Y1916013D01*
X979400Y1915786D01*
X976400D01*
X976213Y1916013D01*
X973853Y1917950D01*
X971160Y1919389D01*
X968239Y1920276D01*
X965200Y1920575D01*
X962161Y1920276D01*
X959240Y1919389D01*
X956547Y1917950D01*
X954187Y1916013D01*
X954000Y1915786D01*
X951000D01*
X950813Y1916013D01*
X948453Y1917950D01*
X945760Y1919389D01*
X942839Y1920276D01*
X939800Y1920575D01*
X936761Y1920276D01*
X933840Y1919389D01*
X931147Y1917950D01*
X928787Y1916013D01*
X928600Y1915786D01*
X925600D01*
X925413Y1916013D01*
X923053Y1917950D01*
X920360Y1919389D01*
X917439Y1920276D01*
X914400Y1920575D01*
X911361Y1920276D01*
X908440Y1919389D01*
X905747Y1917950D01*
X903387Y1916013D01*
X903200Y1915786D01*
X900200D01*
X900013Y1916013D01*
X897653Y1917950D01*
X894960Y1919389D01*
X892038Y1920276D01*
X889000Y1920575D01*
X885962Y1920276D01*
X883040Y1919389D01*
X880347Y1917950D01*
X877987Y1916013D01*
X876050Y1913653D01*
X874713Y1911152D01*
X874136Y1911104D01*
X870793Y1912118D01*
X870761Y1912161D01*
X868663Y1913770D01*
X866221Y1914782D01*
X864870Y1914959D01*
Y1905000D01*
Y1895041D01*
X866221Y1895218D01*
X868663Y1896230D01*
X870761Y1897839D01*
X870793Y1897882D01*
X874136Y1898896D01*
X874713Y1898848D01*
X875888Y1896650D01*
Y1889640D01*
X873640D01*
Y1889640D01*
X864870D01*
Y1879600D01*
Y1869560D01*
X873640D01*
Y1869560D01*
X873766D01*
X875888Y1867439D01*
Y1694531D01*
X718328Y1536972D01*
X536828Y1355472D01*
X534744Y1352756D01*
X534090Y1351175D01*
X533435Y1349594D01*
X532988Y1346200D01*
X532988Y1346200D01*
Y1257300D01*
X532988Y1257300D01*
X533435Y1253906D01*
X534090Y1252325D01*
X534744Y1250744D01*
X536828Y1248028D01*
X542800Y1242057D01*
Y1228600D01*
X545688D01*
Y1102500D01*
X535800D01*
Y1056500D01*
X545688D01*
Y965200D01*
X545688Y965200D01*
X546135Y961806D01*
X546790Y960225D01*
X547444Y958644D01*
X549528Y955928D01*
X567277Y938179D01*
X567446Y936467D01*
X568418Y933263D01*
X569997Y930310D01*
X572121Y927721D01*
X574710Y925597D01*
X577663Y924018D01*
X580867Y923046D01*
X584200Y922718D01*
X587533Y923046D01*
X590737Y924018D01*
X593690Y925597D01*
X596279Y927721D01*
X597025Y928630D01*
X598060Y928260D01*
Y928260D01*
X598060Y928260D01*
X608330D01*
Y939800D01*
Y951340D01*
X598060D01*
X598060Y951340D01*
Y951340D01*
X597025Y950970D01*
X596279Y951879D01*
X593690Y954003D01*
X590737Y955582D01*
X587533Y956554D01*
X585821Y956723D01*
X571912Y970631D01*
Y1048917D01*
X574684Y1050065D01*
X582505Y1042245D01*
X582505Y1042244D01*
X582505D01*
X582505Y1042244D01*
X582505D01*
X582505Y1042244D01*
Y1042244D01*
Y1042244D01*
D01*
D01*
X582505D01*
Y1042244D01*
X584489Y1040722D01*
X586800Y1039764D01*
X589280Y1039438D01*
X679049D01*
X680836Y1037028D01*
X680476Y1035843D01*
X680148Y1032510D01*
X680476Y1029177D01*
X681448Y1025973D01*
X683027Y1023020D01*
X685151Y1020431D01*
X687740Y1018307D01*
X690693Y1016728D01*
X693897Y1015756D01*
X697230Y1015428D01*
X697523Y1015457D01*
X763910Y949070D01*
X763910D01*
X763910Y949070D01*
X763910Y949070D01*
Y949070D01*
X766364Y947186D01*
X767548Y946696D01*
X769223Y946002D01*
X772290Y945599D01*
X772290Y945599D01*
X885039D01*
X885742Y943903D01*
X887505Y941605D01*
X889802Y939842D01*
X891556Y939115D01*
X892142Y936173D01*
X888575Y932606D01*
X887052Y930621D01*
X886095Y928310D01*
X885768Y925830D01*
Y923032D01*
X885742Y922998D01*
X884633Y920322D01*
X884255Y917450D01*
Y901450D01*
X884633Y898578D01*
X885742Y895902D01*
X887505Y893605D01*
X889802Y891842D01*
X892478Y890733D01*
X895350Y890355D01*
X898222Y890733D01*
X899533Y891276D01*
X901913Y889450D01*
X901860Y889050D01*
Y881550D01*
X902178Y879135D01*
X903110Y876885D01*
X904593Y874953D01*
X906525Y873470D01*
X907451Y873087D01*
X907620Y872529D01*
X907326Y871050D01*
Y868570D01*
X916940D01*
Y867300D01*
X918210D01*
Y859686D01*
X922690D01*
X924169Y859980D01*
X925422Y860818D01*
X926260Y862071D01*
X926554Y863550D01*
Y866282D01*
X927306Y866593D01*
X929800Y864927D01*
Y864710D01*
X930118Y862295D01*
X931050Y860045D01*
X932533Y858113D01*
X934465Y856630D01*
X936715Y855698D01*
X939130Y855380D01*
X950630D01*
X953045Y855698D01*
X955295Y856630D01*
X957103Y858017D01*
X959292Y855967D01*
X959040Y855589D01*
X958746Y854110D01*
Y849630D01*
X966360D01*
Y848360D01*
X967630D01*
Y838746D01*
X970110D01*
X971589Y839040D01*
X972147Y838871D01*
X972530Y837945D01*
X974013Y836013D01*
X975945Y834530D01*
X978195Y833598D01*
X980610Y833280D01*
X988110D01*
X990525Y833598D01*
X992775Y834530D01*
X994707Y836013D01*
X996190Y837945D01*
X997122Y840195D01*
X997440Y842610D01*
Y854110D01*
X997122Y856525D01*
X996190Y858775D01*
X994707Y860707D01*
X993942Y861294D01*
Y862220D01*
X993615Y864700D01*
X993219Y865657D01*
X992658Y867011D01*
X992506Y867210D01*
X992897Y870184D01*
X994707Y871573D01*
X996190Y873505D01*
X997122Y875755D01*
X997440Y878170D01*
Y889670D01*
X997122Y892085D01*
X996190Y894335D01*
X994707Y896267D01*
X994178Y896673D01*
X994967Y898578D01*
X995345Y901450D01*
Y915482D01*
X1049627D01*
X1055318Y909791D01*
Y857688D01*
X1053887Y856513D01*
X1051950Y854153D01*
X1050510Y851460D01*
X1049624Y848539D01*
X1049325Y845500D01*
X1049624Y842461D01*
X1050510Y839540D01*
X1051950Y836847D01*
X1053887Y834487D01*
X1056247Y832550D01*
X1056556Y831118D01*
X1056130Y830563D01*
X1055118Y828121D01*
X1054941Y826770D01*
X1064900D01*
Y825500D01*
X1066170D01*
Y815541D01*
X1067521Y815718D01*
X1069963Y816730D01*
X1072061Y818339D01*
X1073400Y820085D01*
X1076400D01*
X1077739Y818339D01*
X1079837Y816730D01*
X1082279Y815718D01*
X1083630Y815541D01*
Y825500D01*
X1086170D01*
Y815541D01*
X1087521Y815718D01*
X1089963Y816730D01*
X1092061Y818339D01*
X1093400Y820085D01*
X1096400D01*
X1097739Y818339D01*
X1099837Y816730D01*
X1102279Y815718D01*
X1103630Y815541D01*
Y825500D01*
X1106170D01*
Y815541D01*
X1107521Y815718D01*
X1109963Y816730D01*
X1112061Y818339D01*
X1113400Y820085D01*
X1116400D01*
X1117739Y818339D01*
X1119837Y816730D01*
X1122279Y815718D01*
X1123630Y815541D01*
Y825500D01*
X1124900D01*
Y826770D01*
X1134859D01*
X1134731Y827745D01*
X1136709Y830000D01*
X1140400D01*
Y861000D01*
X1134482D01*
Y910527D01*
X1137254Y911675D01*
X1159084Y889845D01*
X1159084Y889845D01*
X1159084D01*
X1159084Y889845D01*
X1159084D01*
X1159084Y889845D01*
Y889845D01*
Y889845D01*
D01*
D01*
X1159085D01*
Y889845D01*
X1161069Y888322D01*
X1163380Y887365D01*
X1165860Y887038D01*
X1224280D01*
X1226760Y887365D01*
X1229071Y888322D01*
X1231056Y889845D01*
X1232578Y891829D01*
X1233536Y894140D01*
X1233862Y896620D01*
Y922020D01*
X1233536Y924500D01*
X1233266Y925151D01*
X1234330Y926744D01*
Y937260D01*
X1236870D01*
Y927646D01*
X1239350D01*
X1240829Y927940D01*
X1241387Y927771D01*
X1241770Y926845D01*
X1243253Y924913D01*
X1243793Y924498D01*
X1244428Y922965D01*
X1246111Y920771D01*
X1253107Y913776D01*
X1252918Y911860D01*
X1253246Y908527D01*
X1254218Y905323D01*
X1255797Y902370D01*
X1257921Y899781D01*
X1260510Y897657D01*
X1263463Y896078D01*
X1266667Y895106D01*
X1270000Y894778D01*
X1273333Y895106D01*
X1276537Y896078D01*
X1279490Y897657D01*
X1282079Y899781D01*
X1284203Y902370D01*
X1285782Y905323D01*
X1286754Y908527D01*
X1287082Y911860D01*
X1286754Y915193D01*
X1285782Y918397D01*
X1284203Y921350D01*
X1283361Y922377D01*
X1283128Y924144D01*
X1283572Y925918D01*
X1285119Y926559D01*
X1285472Y926829D01*
X1297859D01*
X1299001Y925341D01*
X1300881Y923898D01*
X1303071Y922992D01*
X1305420Y922682D01*
X1311420D01*
X1313770Y922992D01*
X1315959Y923898D01*
X1317839Y925341D01*
X1319281Y927221D01*
X1319919Y928760D01*
X1323538D01*
X1324039Y928425D01*
X1325420Y928151D01*
X1327150D01*
Y937260D01*
X1328420D01*
Y938530D01*
X1335029D01*
Y942760D01*
X1334755Y944141D01*
X1333972Y945312D01*
X1332801Y946095D01*
X1331420Y946369D01*
X1329491D01*
X1328851Y947100D01*
Y982980D01*
X1328490Y985721D01*
X1327870Y987217D01*
X1327432Y988275D01*
X1326094Y990019D01*
X1327421Y992709D01*
X1348740D01*
X1351481Y993070D01*
X1352977Y993690D01*
X1354035Y994128D01*
X1356229Y995811D01*
X1363689Y1003271D01*
X1364762Y1004670D01*
X1367756Y1004867D01*
X1378574Y994049D01*
X1378456Y991051D01*
X1377940Y990610D01*
X1375078Y987259D01*
X1372775Y983501D01*
X1371088Y979429D01*
X1370059Y975144D01*
X1369713Y970750D01*
Y838200D01*
X1370059Y833806D01*
X1371088Y829521D01*
X1372775Y825449D01*
X1375078Y821691D01*
X1377940Y818340D01*
X1381291Y815478D01*
X1385049Y813175D01*
X1389121Y811488D01*
X1393406Y810459D01*
X1397800Y810113D01*
X1402194Y810459D01*
X1406479Y811488D01*
X1410551Y813175D01*
X1414309Y815478D01*
X1417660Y818340D01*
X1420522Y821691D01*
X1422825Y825449D01*
X1424512Y829521D01*
X1425541Y833806D01*
X1425887Y838200D01*
Y970750D01*
X1425541Y975144D01*
X1424512Y979429D01*
X1422825Y983501D01*
X1420522Y987259D01*
X1417708Y990555D01*
X1417857Y990841D01*
X1419823Y993142D01*
X1422400Y992889D01*
X1485900D01*
X1490409Y993333D01*
X1494008Y994425D01*
X1495425Y993374D01*
X1496418Y991517D01*
Y980240D01*
X1487170D01*
Y965200D01*
Y950160D01*
X1496418D01*
Y773582D01*
X519582D01*
Y1380726D01*
X522294Y1382008D01*
X522351Y1381961D01*
X525478Y1380290D01*
X528871Y1379260D01*
X532400Y1378913D01*
X535929Y1379260D01*
X539322Y1380290D01*
X542449Y1381961D01*
X545190Y1384211D01*
X547439Y1386951D01*
X549110Y1390078D01*
X550140Y1393471D01*
X550487Y1397000D01*
X550140Y1400529D01*
X549110Y1403922D01*
X547439Y1407049D01*
X545190Y1409789D01*
X542449Y1412039D01*
X539322Y1413710D01*
X535929Y1414740D01*
X532400Y1415087D01*
X528871Y1414740D01*
X525478Y1413710D01*
X522351Y1412039D01*
X522294Y1411992D01*
X519582Y1413274D01*
Y1950418D01*
X1378805D01*
X1380348Y1947845D01*
D02*
G37*
%LPC*%
G36*
X636270Y1097000D02*
Y1080770D01*
X652500D01*
X652286Y1082938D01*
X651283Y1086245D01*
X649654Y1089292D01*
X647463Y1091963D01*
X644792Y1094155D01*
X641745Y1095783D01*
X638438Y1096786D01*
X636270Y1097000D01*
D02*
G37*
G36*
X633730D02*
X631562Y1096786D01*
X628255Y1095783D01*
X625208Y1094155D01*
X622537Y1091963D01*
X620345Y1089292D01*
X618717Y1086245D01*
X617714Y1082938D01*
X617500Y1080770D01*
X633730D01*
Y1097000D01*
D02*
G37*
G36*
X786130Y1090972D02*
X784388Y1090743D01*
X781580Y1089580D01*
X779170Y1087730D01*
X777320Y1085320D01*
X776157Y1082513D01*
X775928Y1080770D01*
X786130D01*
Y1090972D01*
D02*
G37*
G36*
X1129030Y1032449D02*
X1124800D01*
X1123419Y1032175D01*
X1122248Y1031392D01*
X1121465Y1030221D01*
X1121191Y1028840D01*
Y1027110D01*
X1129030D01*
Y1032449D01*
D02*
G37*
G36*
X788670Y1090972D02*
Y1080770D01*
X798872D01*
X798643Y1082513D01*
X797480Y1085320D01*
X795630Y1087730D01*
X793220Y1089580D01*
X790413Y1090743D01*
X788670Y1090972D01*
D02*
G37*
G36*
X652500Y1078230D02*
X636270D01*
Y1062000D01*
X638438Y1062214D01*
X641745Y1063217D01*
X644792Y1064846D01*
X647463Y1067037D01*
X649654Y1069708D01*
X651283Y1072755D01*
X652286Y1076062D01*
X652500Y1078230D01*
D02*
G37*
G36*
X633730D02*
X617500D01*
X617714Y1076062D01*
X618717Y1072755D01*
X620345Y1069708D01*
X622537Y1067037D01*
X625208Y1064846D01*
X628255Y1063217D01*
X631562Y1062214D01*
X633730Y1062000D01*
Y1078230D01*
D02*
G37*
G36*
X786130D02*
X775928D01*
X776157Y1076488D01*
X777320Y1073680D01*
X779170Y1071270D01*
X781580Y1069420D01*
X784388Y1068257D01*
X786130Y1068028D01*
Y1078230D01*
D02*
G37*
G36*
X798872D02*
X788670D01*
Y1068028D01*
X790413Y1068257D01*
X793220Y1069420D01*
X795630Y1071270D01*
X797480Y1073680D01*
X798643Y1076488D01*
X798872Y1078230D01*
D02*
G37*
G36*
X560070Y1922500D02*
Y1906270D01*
X576300D01*
X576086Y1908438D01*
X575083Y1911745D01*
X573455Y1914792D01*
X571263Y1917463D01*
X568592Y1919655D01*
X565545Y1921283D01*
X562238Y1922286D01*
X560070Y1922500D01*
D02*
G37*
G36*
X1139190Y1098550D02*
X1128988D01*
X1129217Y1096807D01*
X1130380Y1094000D01*
X1132230Y1091590D01*
X1134640Y1089740D01*
X1137448Y1088577D01*
X1139190Y1088348D01*
Y1098550D01*
D02*
G37*
G36*
X877612Y1134110D02*
X867410D01*
Y1123908D01*
X869153Y1124137D01*
X871960Y1125300D01*
X874370Y1127150D01*
X876220Y1129560D01*
X877383Y1132367D01*
X877612Y1134110D01*
D02*
G37*
G36*
X864870D02*
X854668D01*
X854897Y1132367D01*
X856060Y1129560D01*
X857910Y1127150D01*
X860320Y1125300D01*
X863128Y1124137D01*
X864870Y1123908D01*
Y1134110D01*
D02*
G37*
G36*
X829310Y1152880D02*
X827142Y1152666D01*
X823835Y1151663D01*
X820788Y1150034D01*
X818117Y1147843D01*
X815926Y1145172D01*
X814297Y1142125D01*
X813294Y1138818D01*
X813080Y1136650D01*
X829310D01*
Y1152880D01*
D02*
G37*
G36*
X864870Y1146852D02*
X863128Y1146623D01*
X860320Y1145460D01*
X857910Y1143610D01*
X856060Y1141200D01*
X854897Y1138392D01*
X854668Y1136650D01*
X864870D01*
Y1146852D01*
D02*
G37*
G36*
X831850Y1152880D02*
Y1136650D01*
X848080D01*
X847866Y1138818D01*
X846863Y1142125D01*
X845235Y1145172D01*
X843043Y1147843D01*
X840372Y1150034D01*
X837325Y1151663D01*
X834018Y1152666D01*
X831850Y1152880D01*
D02*
G37*
G36*
X848080Y1134110D02*
X831850D01*
Y1117880D01*
X834018Y1118094D01*
X837325Y1119097D01*
X840372Y1120725D01*
X843043Y1122917D01*
X845235Y1125588D01*
X846863Y1128635D01*
X847866Y1131942D01*
X848080Y1134110D01*
D02*
G37*
G36*
X1223052Y1098550D02*
X1212850D01*
Y1088348D01*
X1214593Y1088577D01*
X1217400Y1089740D01*
X1219810Y1091590D01*
X1221660Y1094000D01*
X1222823Y1096807D01*
X1223052Y1098550D01*
D02*
G37*
G36*
X1210310D02*
X1200108D01*
X1200337Y1096807D01*
X1201500Y1094000D01*
X1203350Y1091590D01*
X1205760Y1089740D01*
X1208568Y1088577D01*
X1210310Y1088348D01*
Y1098550D01*
D02*
G37*
G36*
X1233330D02*
X1227991D01*
Y1094320D01*
X1228265Y1092939D01*
X1229048Y1091768D01*
X1230219Y1090985D01*
X1231600Y1090711D01*
X1233330D01*
Y1098550D01*
D02*
G37*
G36*
X829310Y1134110D02*
X813080D01*
X813294Y1131942D01*
X814297Y1128635D01*
X815926Y1125588D01*
X818117Y1122917D01*
X820788Y1120725D01*
X823835Y1119097D01*
X827142Y1118094D01*
X829310Y1117880D01*
Y1134110D01*
D02*
G37*
G36*
X557530Y1922500D02*
X555362Y1922286D01*
X552055Y1921283D01*
X549008Y1919655D01*
X546337Y1917463D01*
X544146Y1914792D01*
X542517Y1911745D01*
X541514Y1908438D01*
X541300Y1906270D01*
X557530D01*
Y1922500D01*
D02*
G37*
G36*
X1446530Y855700D02*
X1444362Y855486D01*
X1441055Y854483D01*
X1438008Y852855D01*
X1435337Y850663D01*
X1433145Y847992D01*
X1431517Y844945D01*
X1430514Y841638D01*
X1430300Y839470D01*
X1446530D01*
Y855700D01*
D02*
G37*
G36*
X965090Y847090D02*
X958746D01*
Y842610D01*
X959040Y841131D01*
X959878Y839878D01*
X961131Y839040D01*
X962610Y838746D01*
X965090D01*
Y847090D01*
D02*
G37*
G36*
X1449070Y855700D02*
Y839470D01*
X1465300D01*
X1465086Y841638D01*
X1464083Y844945D01*
X1462455Y847992D01*
X1460263Y850663D01*
X1457592Y852855D01*
X1454545Y854483D01*
X1451238Y855486D01*
X1449070Y855700D01*
D02*
G37*
G36*
X1335029Y935990D02*
X1329690D01*
Y928151D01*
X1331420D01*
X1332801Y928425D01*
X1333972Y929208D01*
X1334755Y930379D01*
X1335029Y931760D01*
Y935990D01*
D02*
G37*
G36*
X915670Y866030D02*
X907326D01*
Y863550D01*
X907620Y862071D01*
X908458Y860818D01*
X909711Y859980D01*
X911190Y859686D01*
X915670D01*
Y866030D01*
D02*
G37*
G36*
X1465300Y836930D02*
X1449070D01*
Y820700D01*
X1451238Y820914D01*
X1454545Y821917D01*
X1457592Y823546D01*
X1460263Y825737D01*
X1462455Y828408D01*
X1464083Y831455D01*
X1465086Y834762D01*
X1465300Y836930D01*
D02*
G37*
G36*
X1270000Y835911D02*
X1265491Y835467D01*
X1261156Y834152D01*
X1257160Y832016D01*
X1253658Y829142D01*
X1250784Y825640D01*
X1248648Y821644D01*
X1247333Y817309D01*
X1246889Y812800D01*
X1247333Y808291D01*
X1248648Y803956D01*
X1250784Y799960D01*
X1253658Y796458D01*
X1257160Y793584D01*
X1261156Y791448D01*
X1265491Y790133D01*
X1270000Y789689D01*
X1274509Y790133D01*
X1278844Y791448D01*
X1282840Y793584D01*
X1286342Y796458D01*
X1289216Y799960D01*
X1291352Y803956D01*
X1292667Y808291D01*
X1293111Y812800D01*
X1292667Y817309D01*
X1291352Y821644D01*
X1289216Y825640D01*
X1286342Y829142D01*
X1282840Y832016D01*
X1278844Y834152D01*
X1274509Y835467D01*
X1270000Y835911D01*
D02*
G37*
G36*
X558800D02*
X554291Y835467D01*
X549956Y834152D01*
X545960Y832016D01*
X542458Y829142D01*
X539584Y825640D01*
X537448Y821644D01*
X536133Y817309D01*
X535689Y812800D01*
X536133Y808291D01*
X537448Y803956D01*
X539584Y799960D01*
X542458Y796458D01*
X545960Y793584D01*
X549956Y791448D01*
X554291Y790133D01*
X558800Y789689D01*
X563309Y790133D01*
X567644Y791448D01*
X571640Y793584D01*
X575142Y796458D01*
X578016Y799960D01*
X580152Y803956D01*
X581467Y808291D01*
X581911Y812800D01*
X581467Y817309D01*
X580152Y821644D01*
X578016Y825640D01*
X575142Y829142D01*
X571640Y832016D01*
X567644Y834152D01*
X563309Y835467D01*
X558800Y835911D01*
D02*
G37*
G36*
X1063630Y824230D02*
X1054941D01*
X1055118Y822879D01*
X1056130Y820437D01*
X1057739Y818339D01*
X1059837Y816730D01*
X1062279Y815718D01*
X1063630Y815541D01*
Y824230D01*
D02*
G37*
G36*
X1446530Y836930D02*
X1430300D01*
X1430514Y834762D01*
X1431517Y831455D01*
X1433145Y828408D01*
X1435337Y825737D01*
X1438008Y823546D01*
X1441055Y821917D01*
X1444362Y820914D01*
X1446530Y820700D01*
Y836930D01*
D02*
G37*
G36*
X1134859Y824230D02*
X1126170D01*
Y815541D01*
X1127521Y815718D01*
X1129963Y816730D01*
X1132061Y818339D01*
X1133670Y820437D01*
X1134682Y822879D01*
X1134859Y824230D01*
D02*
G37*
G36*
X621140Y938530D02*
X610870D01*
Y928260D01*
X621140D01*
Y938530D01*
D02*
G37*
G36*
X824272Y989330D02*
X814070D01*
Y979128D01*
X815813Y979357D01*
X818620Y980520D01*
X821030Y982370D01*
X822880Y984780D01*
X824043Y987588D01*
X824272Y989330D01*
D02*
G37*
G36*
X811530D02*
X801328D01*
X801557Y987588D01*
X802720Y984780D01*
X804570Y982370D01*
X806980Y980520D01*
X809788Y979357D01*
X811530Y979128D01*
Y989330D01*
D02*
G37*
G36*
Y1002072D02*
X809788Y1001843D01*
X806980Y1000680D01*
X804570Y998830D01*
X802720Y996420D01*
X801557Y993613D01*
X801328Y991870D01*
X811530D01*
Y1002072D01*
D02*
G37*
G36*
X967740Y1023662D02*
X965997Y1023433D01*
X963190Y1022270D01*
X960780Y1020420D01*
X958930Y1018010D01*
X957767Y1015202D01*
X957538Y1013460D01*
X967740D01*
Y1023662D01*
D02*
G37*
G36*
X814070Y1002072D02*
Y991870D01*
X824272D01*
X824043Y993613D01*
X822880Y996420D01*
X821030Y998830D01*
X818620Y1000680D01*
X815813Y1001843D01*
X814070Y1002072D01*
D02*
G37*
G36*
X968790Y986790D02*
X962446D01*
Y982310D01*
X962740Y980831D01*
X963577Y979578D01*
X964831Y978740D01*
X966310Y978446D01*
X968790D01*
Y986790D01*
D02*
G37*
G36*
X1484630Y963930D02*
X1470860D01*
Y950160D01*
X1484630D01*
Y963930D01*
D02*
G37*
G36*
X621140Y951340D02*
X610870D01*
Y941070D01*
X621140D01*
Y951340D01*
D02*
G37*
G36*
X1484630Y980240D02*
X1470860D01*
Y966470D01*
X1484630D01*
Y980240D01*
D02*
G37*
G36*
X862330Y1914959D02*
X860979Y1914782D01*
X858537Y1913770D01*
X856439Y1912161D01*
X854830Y1910063D01*
X853818Y1907621D01*
X853641Y1906270D01*
X862330D01*
Y1914959D01*
D02*
G37*
G36*
X1474470D02*
Y1906270D01*
X1483159D01*
X1482982Y1907621D01*
X1481970Y1910063D01*
X1480361Y1912161D01*
X1478263Y1913770D01*
X1475821Y1914782D01*
X1474470Y1914959D01*
D02*
G37*
G36*
X1027430Y1553314D02*
X1022950D01*
X1021471Y1553020D01*
X1020218Y1552182D01*
X1019380Y1550929D01*
X1019086Y1549450D01*
Y1546970D01*
X1027430D01*
Y1553314D01*
D02*
G37*
G36*
X1009050D02*
X1004570D01*
Y1546970D01*
X1012914D01*
Y1549450D01*
X1012620Y1550929D01*
X1011782Y1552182D01*
X1010529Y1553020D01*
X1009050Y1553314D01*
D02*
G37*
G36*
X1280030Y1556319D02*
X1273300D01*
X1271138Y1555889D01*
X1269306Y1554664D01*
X1268081Y1552832D01*
X1267904Y1551940D01*
X1280030D01*
Y1556319D01*
D02*
G37*
G36*
X928370Y1568492D02*
X926628Y1568263D01*
X923820Y1567100D01*
X921410Y1565250D01*
X919560Y1562840D01*
X918397Y1560033D01*
X918168Y1558290D01*
X928370D01*
Y1568492D01*
D02*
G37*
G36*
X1289300Y1556319D02*
X1282570D01*
Y1551940D01*
X1294696D01*
X1294519Y1552832D01*
X1293294Y1554664D01*
X1291462Y1555889D01*
X1289300Y1556319D01*
D02*
G37*
G36*
X1002030Y1553314D02*
X997550D01*
X996071Y1553020D01*
X994818Y1552182D01*
X993980Y1550929D01*
X993686Y1549450D01*
Y1546970D01*
X1002030D01*
Y1553314D01*
D02*
G37*
G36*
X928370Y1555750D02*
X918168D01*
X918397Y1554008D01*
X919560Y1551200D01*
X921410Y1548790D01*
X923820Y1546940D01*
X926628Y1545777D01*
X928370Y1545548D01*
Y1555750D01*
D02*
G37*
G36*
X933492Y1504950D02*
X923290D01*
Y1494748D01*
X925033Y1494977D01*
X927840Y1496140D01*
X930250Y1497990D01*
X932100Y1500400D01*
X933263Y1503208D01*
X933492Y1504950D01*
D02*
G37*
G36*
X941112Y1555750D02*
X930910D01*
Y1545548D01*
X932653Y1545777D01*
X935460Y1546940D01*
X937870Y1548790D01*
X939720Y1551200D01*
X940883Y1554008D01*
X941112Y1555750D01*
D02*
G37*
G36*
X983650Y1553314D02*
X979170D01*
Y1546970D01*
X987514D01*
Y1549450D01*
X987220Y1550929D01*
X986382Y1552182D01*
X985129Y1553020D01*
X983650Y1553314D01*
D02*
G37*
G36*
X976630D02*
X972150D01*
X970671Y1553020D01*
X969418Y1552182D01*
X968580Y1550929D01*
X968286Y1549450D01*
Y1546970D01*
X976630D01*
Y1553314D01*
D02*
G37*
G36*
X930910Y1568492D02*
Y1558290D01*
X941112D01*
X940883Y1560033D01*
X939720Y1562840D01*
X937870Y1565250D01*
X935460Y1567100D01*
X932653Y1568263D01*
X930910Y1568492D01*
D02*
G37*
G36*
X1483159Y1878330D02*
X1474470D01*
Y1869641D01*
X1475821Y1869818D01*
X1478263Y1870830D01*
X1480361Y1872439D01*
X1481970Y1874537D01*
X1482982Y1876979D01*
X1483159Y1878330D01*
D02*
G37*
G36*
X862330D02*
X853560D01*
Y1869560D01*
X862330D01*
Y1878330D01*
D02*
G37*
G36*
Y1889640D02*
X853560D01*
Y1880870D01*
X862330D01*
Y1889640D01*
D02*
G37*
G36*
X557530Y1903730D02*
X541300D01*
X541514Y1901562D01*
X542517Y1898255D01*
X544146Y1895208D01*
X546337Y1892537D01*
X549008Y1890345D01*
X552055Y1888717D01*
X555362Y1887714D01*
X557530Y1887500D01*
Y1903730D01*
D02*
G37*
G36*
X1474470Y1889559D02*
Y1880870D01*
X1483159D01*
X1482982Y1882221D01*
X1481970Y1884663D01*
X1480361Y1886761D01*
X1478263Y1888370D01*
X1475821Y1889382D01*
X1474470Y1889559D01*
D02*
G37*
G36*
X1270000Y1826511D02*
X1265491Y1826067D01*
X1261156Y1824752D01*
X1257160Y1822616D01*
X1253658Y1819742D01*
X1250784Y1816240D01*
X1248648Y1812244D01*
X1247333Y1807909D01*
X1246889Y1803400D01*
X1247333Y1798891D01*
X1248648Y1794556D01*
X1250784Y1790560D01*
X1253658Y1787058D01*
X1257160Y1784184D01*
X1261156Y1782048D01*
X1265491Y1780733D01*
X1270000Y1780289D01*
X1274509Y1780733D01*
X1278844Y1782048D01*
X1282840Y1784184D01*
X1286342Y1787058D01*
X1289216Y1790560D01*
X1291352Y1794556D01*
X1292667Y1798891D01*
X1293111Y1803400D01*
X1292667Y1807909D01*
X1291352Y1812244D01*
X1289216Y1816240D01*
X1286342Y1819742D01*
X1282840Y1822616D01*
X1278844Y1824752D01*
X1274509Y1826067D01*
X1270000Y1826511D01*
D02*
G37*
G36*
X576300Y1903730D02*
X560070D01*
Y1887500D01*
X562238Y1887714D01*
X565545Y1888717D01*
X568592Y1890345D01*
X571263Y1892537D01*
X573455Y1895208D01*
X575083Y1898255D01*
X576086Y1901562D01*
X576300Y1903730D01*
D02*
G37*
G36*
X1038750Y1586954D02*
X1036270D01*
X1034791Y1586660D01*
X1033538Y1585822D01*
X1032700Y1584569D01*
X1032406Y1583090D01*
Y1578610D01*
X1038750D01*
Y1586954D01*
D02*
G37*
G36*
X1259730Y1680210D02*
X1253386D01*
Y1675730D01*
X1253680Y1674251D01*
X1254518Y1672998D01*
X1255771Y1672160D01*
X1257250Y1671866D01*
X1259730D01*
Y1680210D01*
D02*
G37*
G36*
X1280030Y1746819D02*
X1273300D01*
X1271138Y1746389D01*
X1269306Y1745164D01*
X1268081Y1743332D01*
X1267904Y1742440D01*
X1280030D01*
Y1746819D01*
D02*
G37*
G36*
X1259730Y1691094D02*
X1257250D01*
X1255771Y1690800D01*
X1254518Y1689962D01*
X1253680Y1688709D01*
X1253386Y1687230D01*
Y1682750D01*
X1259730D01*
Y1691094D01*
D02*
G37*
G36*
X581872Y1292690D02*
X571670D01*
Y1282488D01*
X573413Y1282717D01*
X576220Y1283880D01*
X578630Y1285730D01*
X580480Y1288140D01*
X581643Y1290948D01*
X581872Y1292690D01*
D02*
G37*
G36*
X1379380Y1279109D02*
X1377650D01*
X1376269Y1278835D01*
X1375098Y1278052D01*
X1374315Y1276881D01*
X1374041Y1275500D01*
Y1271270D01*
X1379380D01*
Y1279109D01*
D02*
G37*
G36*
X1474470Y1299959D02*
Y1291270D01*
X1483159D01*
X1482982Y1292621D01*
X1481970Y1295063D01*
X1480361Y1297161D01*
X1478263Y1298770D01*
X1475821Y1299782D01*
X1474470Y1299959D01*
D02*
G37*
G36*
X1477114Y1319530D02*
X1470770D01*
Y1311186D01*
X1473250D01*
X1474729Y1311480D01*
X1475982Y1312318D01*
X1476820Y1313571D01*
X1477114Y1315050D01*
Y1319530D01*
D02*
G37*
G36*
X571670Y1305432D02*
Y1295230D01*
X581872D01*
X581643Y1296973D01*
X580480Y1299780D01*
X578630Y1302190D01*
X576220Y1304040D01*
X573413Y1305203D01*
X571670Y1305432D01*
D02*
G37*
G36*
X862330Y1903730D02*
X853641D01*
X853818Y1902379D01*
X854830Y1899937D01*
X856439Y1897839D01*
X858537Y1896230D01*
X860979Y1895218D01*
X862330Y1895041D01*
Y1903730D01*
D02*
G37*
G36*
X948690Y1146970D02*
X940851D01*
Y1145240D01*
X941125Y1143859D01*
X941908Y1142688D01*
X943079Y1141905D01*
X944460Y1141631D01*
X948690D01*
Y1146970D01*
D02*
G37*
G36*
X867410Y1146852D02*
Y1136650D01*
X877612D01*
X877383Y1138392D01*
X876220Y1141200D01*
X874370Y1143610D01*
X871960Y1145460D01*
X869153Y1146623D01*
X867410Y1146852D01*
D02*
G37*
G36*
X959069Y1146970D02*
X951230D01*
Y1141631D01*
X955460D01*
X956841Y1141905D01*
X958012Y1142688D01*
X958795Y1143859D01*
X959069Y1145240D01*
Y1146970D01*
D02*
G37*
G36*
X1379380Y1249680D02*
X1374041D01*
Y1245450D01*
X1374315Y1244069D01*
X1375098Y1242898D01*
X1376269Y1242115D01*
X1377650Y1241841D01*
X1379380D01*
Y1249680D01*
D02*
G37*
G36*
X1483159Y1903730D02*
X1474470D01*
Y1895041D01*
X1475821Y1895218D01*
X1478263Y1896230D01*
X1480361Y1897839D01*
X1481970Y1899937D01*
X1482982Y1902379D01*
X1483159Y1903730D01*
D02*
G37*
G36*
X1473250Y1330414D02*
X1470770D01*
Y1322070D01*
X1477114D01*
Y1326550D01*
X1476820Y1328029D01*
X1475982Y1329282D01*
X1474729Y1330120D01*
X1473250Y1330414D01*
D02*
G37*
G36*
X1474470Y1406959D02*
Y1398270D01*
X1483159D01*
X1482982Y1399621D01*
X1481970Y1402063D01*
X1480361Y1404161D01*
X1478263Y1405770D01*
X1475821Y1406782D01*
X1474470Y1406959D01*
D02*
G37*
G36*
X862330D02*
X860979Y1406782D01*
X858537Y1405770D01*
X856439Y1404161D01*
X854830Y1402063D01*
X853818Y1399621D01*
X853641Y1398270D01*
X862330D01*
Y1406959D01*
D02*
G37*
G36*
X1257190Y1489710D02*
X1250846D01*
Y1485230D01*
X1251140Y1483751D01*
X1251978Y1482498D01*
X1253231Y1481660D01*
X1254710Y1481366D01*
X1257190D01*
Y1489710D01*
D02*
G37*
G36*
X920750Y1504950D02*
X910548D01*
X910777Y1503208D01*
X911940Y1500400D01*
X913790Y1497990D01*
X916200Y1496140D01*
X919007Y1494977D01*
X920750Y1494748D01*
Y1504950D01*
D02*
G37*
G36*
X1257190Y1500594D02*
X1254710D01*
X1253231Y1500300D01*
X1251978Y1499462D01*
X1251140Y1498209D01*
X1250846Y1496730D01*
Y1492250D01*
X1257190D01*
Y1500594D01*
D02*
G37*
G36*
X1483159Y1395730D02*
X1474470D01*
Y1387041D01*
X1475821Y1387218D01*
X1478263Y1388230D01*
X1480361Y1389839D01*
X1481970Y1391937D01*
X1482982Y1394379D01*
X1483159Y1395730D01*
D02*
G37*
G36*
Y1370330D02*
X1474470D01*
Y1361641D01*
X1475821Y1361818D01*
X1478263Y1362830D01*
X1480361Y1364439D01*
X1481970Y1366537D01*
X1482982Y1368979D01*
X1483159Y1370330D01*
D02*
G37*
G36*
X862330D02*
X853560D01*
Y1361560D01*
X862330D01*
Y1370330D01*
D02*
G37*
G36*
Y1381640D02*
X853560D01*
Y1372870D01*
X862330D01*
Y1381640D01*
D02*
G37*
G36*
Y1395730D02*
X853641D01*
X853818Y1394379D01*
X854830Y1391937D01*
X856439Y1389839D01*
X858537Y1388230D01*
X860979Y1387218D01*
X862330Y1387041D01*
Y1395730D01*
D02*
G37*
G36*
X1474470Y1381559D02*
Y1372870D01*
X1483159D01*
X1482982Y1374221D01*
X1481970Y1376663D01*
X1480361Y1378761D01*
X1478263Y1380370D01*
X1475821Y1381382D01*
X1474470Y1381559D01*
D02*
G37*
%LPD*%
D12*
X1365250Y1022350D02*
X1397000Y990600D01*
X1356200Y1022350D02*
X1365250D01*
X1315500D02*
X1336200D01*
X1314450Y1023400D02*
X1315500Y1022350D01*
X1314450Y1041400D02*
X1336200D01*
X1301750D02*
X1314450D01*
X1289050Y1054100D02*
X1301750Y1041400D01*
X1268600Y1054100D02*
X1289050D01*
X1268600Y1041400D02*
X1282700D01*
X1300700Y1023400D01*
X1314450D01*
X1356200Y1041400D02*
X1397000D01*
X1346200Y1079500D02*
X1356200Y1069500D01*
Y1041400D02*
Y1069500D01*
X1257300Y1016000D02*
X1268600D01*
X1252220Y958960D02*
X1253600Y957580D01*
X1252220Y958960D02*
Y1010920D01*
X1257300Y1016000D01*
X1235600Y957580D02*
Y968900D01*
X1239520Y972820D01*
Y1008380D01*
X1231900Y1016000D02*
X1239520Y1008380D01*
X1268600Y1003300D02*
X1348740D01*
X1356200Y1010760D01*
Y1022350D01*
X1254760Y1028700D02*
X1268600D01*
X1252220Y1031240D02*
X1254760Y1028700D01*
X1252220Y1031240D02*
Y1097440D01*
X1254600Y1099820D01*
Y1119980D01*
X1254440Y1120140D02*
X1254600Y1119980D01*
X1218060Y1051560D02*
X1220600Y1041400D01*
X1231900Y1016000D02*
X1234440D01*
X1239520Y1021080D01*
Y1079500D01*
X1234600Y1084420D02*
X1239520Y1079500D01*
X1234600Y1084420D02*
Y1099820D01*
X1197450Y977900D02*
X1220600D01*
X1191100Y971550D02*
X1197450Y977900D01*
X1156650Y971550D02*
X1171100D01*
X1235600Y937260D02*
Y957580D01*
X1253600Y937260D02*
Y957580D01*
X944880Y886460D02*
X946150Y887730D01*
Y909450D01*
X919480Y886460D02*
Y908180D01*
X920750Y909450D01*
X970060Y958940D02*
Y988060D01*
X1308420Y937260D02*
X1318260Y947100D01*
X1268600Y990600D02*
X1310640D01*
X1318260Y982980D01*
Y947100D02*
Y982980D01*
X1275080Y957420D02*
Y971420D01*
X1268600Y977900D02*
X1275080Y971420D01*
Y937420D02*
X1308260D01*
X1308420Y937260D01*
X1275080Y957420D02*
X1275240Y957580D01*
X1300480Y970280D02*
Y972820D01*
X1287780Y957580D02*
X1300480Y970280D01*
X1275240Y957580D02*
X1287780D01*
X1323340Y1123790D02*
X1323500Y1123950D01*
X1341246Y1089660D02*
X1353586Y1102000D01*
X1323340Y1097280D02*
Y1123790D01*
Y1097280D02*
X1330960Y1089660D01*
X1341246D01*
X1397000Y1104900D02*
X1485900Y1016000D01*
X1370700Y1733400D02*
Y1766700D01*
X1371600Y1688600D02*
Y1714500D01*
Y1542000D02*
Y1574800D01*
Y1495800D02*
Y1524000D01*
X1338580Y1699260D02*
X1359140D01*
X1370700Y1687700D01*
X1281300Y1715770D02*
X1342390D01*
X1359120Y1732500D01*
X1371600D01*
X1281300Y1525270D02*
X1316990D01*
X1318260Y1526540D01*
X1343660Y1551940D02*
X1361660D01*
X1371600Y1542000D01*
X1281300Y1537970D02*
X1306830D01*
X1315720Y1546860D01*
X1325880D01*
X1348740Y1524000D01*
X1371600D01*
X1281300Y1728470D02*
X1309370D01*
X986920Y1282700D02*
X1218060Y1051560D01*
X1451000Y1155200D02*
Y1169850D01*
Y1155200D02*
X1463200Y1143000D01*
X1473200Y1188720D02*
Y1230000D01*
X1380650Y1250950D02*
Y1270000D01*
Y1286670D01*
X1437640Y1343660D01*
X1469500D01*
X1406525Y1270000D02*
X1412400D01*
X1470000Y1154700D02*
Y1169850D01*
X1417320Y1127760D02*
X1465580D01*
X1384300Y1160780D02*
X1417320Y1127760D01*
X1016000Y1277620D02*
X1018540D01*
X995680Y1297940D02*
X1016000Y1277620D01*
X1209040Y1249680D02*
X1346200D01*
X1104900Y1353820D02*
X1209040Y1249680D01*
X1235600Y898000D02*
Y937260D01*
Y898000D02*
X1239520Y894080D01*
X1328420D01*
X1253600Y928260D02*
Y937260D01*
Y928260D02*
X1270000Y911860D01*
X1181100Y939800D02*
X1209040Y911860D01*
X787400Y1127760D02*
X835660Y1079500D01*
X787400Y1127760D02*
Y1168400D01*
X830580Y1211580D01*
X1206500Y1028700D02*
X1220600D01*
X1191260Y1043940D02*
X1206500Y1028700D01*
X1370725Y1124900D02*
Y1125220D01*
X835660Y1079500D02*
X1000760D01*
X1140460Y939800D01*
X1181100D01*
X1061720Y1356360D02*
X1170940Y1247140D01*
X1176020D01*
X1016000Y1361440D02*
Y1371600D01*
Y1361440D02*
X1150620Y1226820D01*
X1391920D01*
X955040Y1277620D02*
X970280Y1262380D01*
Y1196340D02*
Y1262380D01*
X949960Y1176020D02*
X970280Y1196340D01*
X889000Y1371600D02*
Y1397000D01*
X990600Y1353820D02*
Y1371600D01*
X1191100Y971550D02*
Y975520D01*
X1178400Y988220D02*
X1191100Y975520D01*
X1168400Y988220D02*
X1178400D01*
X1130300Y1005840D02*
X1137920Y998220D01*
X1150620D01*
X1203960Y1003300D02*
X1220600D01*
X1168400Y1008220D02*
Y1010920D01*
X1155700Y1023620D02*
X1168400Y1010920D01*
X1155700Y1051560D02*
X1203960Y1003300D01*
X1424940Y1297940D02*
X1445260D01*
X1056640Y1295400D02*
Y1297940D01*
Y1295400D02*
X1191260Y1160780D01*
X1384300D01*
X995680Y1320800D02*
X1005840D01*
X1177290Y1149350D01*
X1330800D01*
X1281300Y1683780D02*
Y1703070D01*
X1261000Y1681480D02*
Y1733440D01*
X1268730Y1741170D01*
X1281300D01*
X1258460Y1490980D02*
Y1507380D01*
X1264920Y1513840D01*
Y1549400D01*
X1266190Y1550670D01*
X1281300D01*
X1016000Y1511300D02*
X1038860D01*
X1056640Y1529080D01*
X1079500D01*
Y1539600D01*
X1089300D02*
X1092200Y1542500D01*
Y1554480D01*
X1087780Y1558900D02*
X1092200Y1554480D01*
X1079800Y1558900D02*
X1087780D01*
X1079500Y1539600D02*
X1089300D01*
X1255920Y1488440D02*
X1258460Y1490980D01*
X1188720Y1488440D02*
X1255920D01*
X1084580Y1592580D02*
X1188720Y1488440D01*
X1040020Y1577340D02*
Y1591420D01*
X1041400Y1592580D02*
X1084580D01*
X1040130Y1591310D02*
X1041400Y1592580D01*
X1040020Y1591420D02*
X1040130Y1591310D01*
X1320800Y1397000D02*
Y1424940D01*
X1308100Y1384300D02*
X1320800Y1371600D01*
X1308100Y1384300D02*
Y1409700D01*
X1292860Y1424940D02*
X1308100Y1409700D01*
X1239520Y1402080D02*
X1244600Y1397000D01*
X1239520Y1402080D02*
Y1430020D01*
X1173480Y1526540D02*
X1183640D01*
X1211580Y1520190D02*
X1216660Y1525270D01*
X1233300D01*
X1183640Y1526540D02*
X1189990Y1520190D01*
X1211580D01*
X1203960Y1506220D02*
X1209040Y1511300D01*
X1232030D01*
X1233300Y1512570D01*
X1187450Y1562100D02*
X1209040Y1540510D01*
X1187450Y1562100D02*
Y1710690D01*
X1205230Y1728470D01*
X1233300D01*
X1209040Y1537970D02*
X1233300D01*
Y1599060D02*
Y1703070D01*
X1209040Y1574800D02*
X1233300Y1599060D01*
X970060Y988060D02*
Y1011140D01*
X969010Y1012190D02*
X970060Y1011140D01*
X908050Y957450D02*
Y974090D01*
X849630Y1032510D02*
X908050Y974090D01*
X731520Y1032510D02*
X849630D01*
X1395730Y1906270D02*
Y1940560D01*
X920750Y957450D02*
Y994410D01*
X933450Y957450D02*
Y986790D01*
X941070Y994410D01*
X1295400Y1332230D02*
Y1371600D01*
D13*
X984360Y883920D02*
Y909340D01*
X966360Y883920D02*
Y890380D01*
X958850Y897890D02*
X966360Y890380D01*
X958850Y897890D02*
Y909450D01*
X971550Y897890D02*
Y909450D01*
Y897890D02*
X975360Y894080D01*
Y871220D02*
X984360Y862220D01*
Y848360D02*
Y862220D01*
X1099820Y939800D02*
X1124900Y914720D01*
Y845500D02*
Y914720D01*
X946150Y957450D02*
X947420Y956180D01*
Y949802D02*
Y956180D01*
X1089660Y934720D02*
X1104900Y919480D01*
Y845500D02*
Y919480D01*
X1084900Y845500D02*
Y906540D01*
X1061720Y929720D02*
X1084900Y906540D01*
X904240Y934720D02*
X955431D01*
X895350Y925830D02*
X904240Y934720D01*
X895350Y909450D02*
Y925830D01*
X908050Y909450D02*
Y918210D01*
X1064900Y845500D02*
Y913760D01*
X958850Y946150D02*
X965200Y939800D01*
X1099820D01*
X947420Y949802D02*
X962502Y934720D01*
X1089660D01*
X955431D02*
X960431Y929720D01*
X1061720D01*
X1054100Y924560D02*
X1064900Y913760D01*
X1333500Y1105200D02*
X1336700Y1102000D01*
X1333500Y1105200D02*
Y1146650D01*
X1330800Y1149350D02*
X1333500Y1146650D01*
X1381760Y1115060D02*
X1409700D01*
X985520Y1289180D02*
X986920Y1282700D01*
X975680Y1320800D02*
Y1340800D01*
X965200Y1351280D02*
X975680Y1340800D01*
X965200Y1351280D02*
Y1371600D01*
X962660Y1297940D02*
X975680D01*
X939800Y1320800D02*
X962660Y1297940D01*
X939800Y1320800D02*
Y1371600D01*
X1493520Y1190860D02*
X1500940Y1183440D01*
X1483200Y1143000D02*
X1500940Y1160740D01*
Y1183440D01*
X1493520Y1190860D02*
Y1229680D01*
X1473200Y1250000D02*
X1493520Y1229680D01*
X1453200Y1199650D02*
Y1230000D01*
Y1199650D02*
X1460500Y1192350D01*
X1454330Y1169850D02*
X1473200Y1188720D01*
X1451000Y1169850D02*
X1454330D01*
X1470000Y1154700D02*
X1473200Y1151500D01*
Y1135380D02*
Y1151500D01*
X1465580Y1127760D02*
X1473200Y1135380D01*
X1400650Y1250950D02*
X1412400D01*
X1400650Y1222850D02*
Y1250950D01*
X1386840Y1209040D02*
X1400650Y1222850D01*
X1104900Y1353820D02*
Y1379220D01*
X1099820Y1384300D02*
X1104900Y1379220D01*
X1079500Y1384300D02*
X1099820D01*
X1066800Y1397000D02*
X1079500Y1384300D01*
X1136650Y971550D02*
X1158240Y949960D01*
X1196340D01*
X1224280Y922020D01*
Y896620D02*
Y922020D01*
X558800Y1079500D02*
X589280Y1049020D01*
X1013460D01*
X1165860Y896620D01*
X1224280D01*
X1216660Y1120140D02*
X1234440D01*
X1209040Y1127760D02*
X1216660Y1120140D01*
X1041400Y1397000D02*
X1054100Y1384300D01*
Y1363980D02*
X1061720Y1356360D01*
X1054100Y1363980D02*
Y1384300D01*
X1016000Y1389380D02*
Y1397000D01*
X1003300Y1376680D02*
X1016000Y1389380D01*
X1003300Y1348740D02*
Y1376680D01*
Y1348740D02*
X1016000Y1336040D01*
X985520Y1289180D02*
Y1341120D01*
X1156650Y971550D02*
Y982030D01*
X1150620Y988060D02*
X1156650Y982030D01*
X1150620Y988060D02*
Y998220D01*
X1186180D01*
X1193800Y990600D01*
X1220600D01*
X1041400Y1356360D02*
X1099820Y1297940D01*
X1041400Y1356360D02*
Y1371600D01*
X977900Y1384300D02*
X990600Y1397000D01*
X977900Y1348740D02*
X985520Y1341120D01*
X977900Y1348740D02*
Y1384300D01*
X1231900D02*
X1244600Y1371600D01*
X1231900Y1384300D02*
Y1403350D01*
X1206500Y1428750D02*
X1231900Y1403350D01*
X1211580Y1658620D02*
Y1708150D01*
X1219200Y1715770D01*
X1233300D01*
X1257300Y1330960D02*
Y1384300D01*
X1270000Y1397000D01*
D14*
X1397800Y970750D02*
Y989800D01*
X1064900Y825500D02*
X1084900D01*
X1104900D01*
X1124900D01*
X970280D02*
X1064900D01*
X966360Y829420D02*
X970280Y825500D01*
X966360Y829420D02*
Y848360D01*
X935880D02*
X966360D01*
X916940Y867300D02*
X935880Y848360D01*
X1432400Y1270000D02*
X1453200D01*
X1433350Y1250000D02*
X1453200D01*
X1473200D02*
Y1270000D01*
Y1290000D01*
Y1317100D01*
X1469500Y1367900D02*
X1473200Y1371600D01*
Y1397000D01*
X1469500Y1320800D02*
Y1343660D01*
Y1367900D01*
X866140Y1099820D02*
X1140460D01*
X830580Y1135380D02*
X866140Y1099820D01*
X1328420Y820420D02*
X1363980Y784860D01*
X1430020D01*
X1447800Y802640D01*
Y838200D01*
X1328420Y820420D02*
Y937260D01*
X609600Y1244600D02*
X640080D01*
X609600D02*
Y1270000D01*
X662940Y1323340D01*
Y1336040D01*
X570400Y1293960D02*
X584200Y1280160D01*
Y1244600D02*
Y1280160D01*
Y1170940D02*
Y1244600D01*
Y1170940D02*
X635000Y1120140D01*
X636270Y1079500D01*
X546100Y1257300D02*
X558800Y1244600D01*
X546100Y1257300D02*
Y1346200D01*
X727600Y1527700D01*
X977900D01*
X1003300D01*
X727600D02*
X889000Y1689100D01*
Y1879600D01*
Y1905000D01*
X863600Y1371600D02*
Y1397000D01*
Y1168400D02*
Y1371600D01*
X830580Y1135380D02*
X863600Y1168400D01*
X830580Y1135380D02*
X866140D01*
X937100D01*
X949960Y1148240D01*
X922180Y1203800D02*
X949960D01*
X894080Y1231900D02*
X922180Y1203800D01*
X830580Y1231900D02*
X843280Y1244600D01*
X830580Y1211580D02*
Y1231900D01*
X949960Y1168240D02*
Y1176020D01*
X1130300Y1025840D02*
Y1089660D01*
X1140460Y1099820D01*
X1451500Y1291700D02*
Y1320800D01*
X1003300Y1524000D02*
Y1527700D01*
Y1524000D02*
X1016000Y1511300D01*
X636270Y1079500D02*
X787400D01*
X558800D02*
Y1244600D01*
Y965200D02*
Y1079500D01*
Y965200D02*
X584200Y939800D01*
D15*
X673100Y1211580D02*
X830580D01*
X640080Y1244600D02*
X673100Y1211580D01*
D16*
X1409700Y1115060D02*
X1465580D01*
X1483200Y1132680D01*
Y1143000D01*
X1368700Y1102000D02*
X1381760Y1115060D01*
X1353586Y1102000D02*
X1355700D01*
X1368700D01*
X1343500Y1123950D02*
X1344450Y1124900D01*
X1473200Y1879600D02*
Y1905000D01*
X1397000Y1803400D02*
X1473200Y1879600D01*
X1343530Y1803400D02*
X1397000D01*
X1281300Y1741170D02*
X1343530Y1803400D01*
X1343500Y1123950D02*
Y1127600D01*
X1211580Y1099820D02*
X1234600D01*
X1344450Y1124900D02*
X1370725D01*
X1397000D01*
X1281300Y1550670D02*
Y1639700D01*
X1261000Y1660000D02*
X1281300Y1639700D01*
X1261000Y1660000D02*
Y1681480D01*
X1276460Y1490980D02*
X1281300Y1495820D01*
Y1512570D01*
X1276460Y1490980D02*
X1328420D01*
X1353820Y1465580D01*
X1399540D01*
X1404620Y1470660D01*
Y1582420D01*
X1361440Y1625600D02*
X1404620Y1582420D01*
X1334880Y1625600D02*
X1361440D01*
X1279000Y1681480D02*
X1334880Y1625600D01*
X977900Y1545700D02*
X1003300D01*
X1028700D01*
X1053800Y1558900D02*
X1057800Y1562900D01*
X940960Y1545700D02*
X977900D01*
X929640Y1557020D02*
X940960Y1545700D01*
X922020Y1463040D02*
Y1506220D01*
X863600Y1404620D02*
X922020Y1463040D01*
X863600Y1397000D02*
Y1404620D01*
X1264920Y1463040D02*
X1276460Y1474580D01*
Y1490980D01*
X1057800Y1562900D02*
Y1577340D01*
X1058020D02*
X1084580D01*
X1198880Y1463040D01*
X1264920D01*
X988060Y988060D02*
Y1029970D01*
X887730Y1346200D02*
X889000Y1347470D01*
Y1371600D01*
X772290Y957450D02*
X895350D01*
X697230Y1032510D02*
X772290Y957450D01*
X1327150Y1841500D02*
X1333500D01*
X1371600Y1879600D01*
D17*
X558800Y812800D02*
D03*
X1270000D02*
D03*
Y1803400D02*
D03*
X558800Y1905000D02*
D03*
X1447800Y838200D02*
D03*
X1397800D02*
D03*
X635000Y1079500D02*
D03*
X1370700Y1766700D02*
D03*
Y1687700D02*
D03*
X1371600Y1574800D02*
D03*
Y1495800D02*
D03*
X830580Y1135380D02*
D03*
D18*
X558800Y1079500D02*
D03*
D19*
X532400Y1397000D02*
D03*
D20*
X558800Y1244600D02*
D03*
D21*
X584200D02*
D03*
X609600D02*
D03*
X1397000Y990600D02*
D03*
Y1016000D02*
D03*
D22*
X1473200Y1397000D02*
D03*
Y1371600D02*
D03*
X1447800Y1397000D02*
D03*
Y1371600D02*
D03*
X1422400Y1397000D02*
D03*
Y1371600D02*
D03*
X1397000Y1397000D02*
D03*
Y1371600D02*
D03*
X1371600Y1397000D02*
D03*
Y1371600D02*
D03*
X1346200Y1397000D02*
D03*
Y1371600D02*
D03*
X1320800Y1397000D02*
D03*
Y1371600D02*
D03*
X1295400Y1397000D02*
D03*
Y1371600D02*
D03*
X1270000Y1397000D02*
D03*
Y1371600D02*
D03*
X1244600Y1397000D02*
D03*
Y1371600D02*
D03*
X1219200Y1397000D02*
D03*
Y1371600D02*
D03*
X1193800Y1397000D02*
D03*
Y1371600D02*
D03*
X1168400Y1397000D02*
D03*
Y1371600D02*
D03*
X1143000Y1397000D02*
D03*
Y1371600D02*
D03*
X1117600Y1397000D02*
D03*
Y1371600D02*
D03*
X1092200Y1397000D02*
D03*
Y1371600D02*
D03*
X1066800Y1397000D02*
D03*
Y1371600D02*
D03*
X1041400Y1397000D02*
D03*
Y1371600D02*
D03*
X1016000Y1397000D02*
D03*
Y1371600D02*
D03*
X990600Y1397000D02*
D03*
Y1371600D02*
D03*
X965200Y1397000D02*
D03*
Y1371600D02*
D03*
X939800Y1397000D02*
D03*
Y1371600D02*
D03*
X914400Y1397000D02*
D03*
Y1371600D02*
D03*
X889000Y1397000D02*
D03*
Y1371600D02*
D03*
X863600Y1397000D02*
D03*
X1473200Y1905000D02*
D03*
Y1879600D02*
D03*
X1447800Y1905000D02*
D03*
Y1879600D02*
D03*
X1422400Y1905000D02*
D03*
Y1879600D02*
D03*
X1397000Y1905000D02*
D03*
Y1879600D02*
D03*
X1371600Y1905000D02*
D03*
Y1879600D02*
D03*
X1346200Y1905000D02*
D03*
Y1879600D02*
D03*
X1320800Y1905000D02*
D03*
Y1879600D02*
D03*
X1295400Y1905000D02*
D03*
Y1879600D02*
D03*
X1270000Y1905000D02*
D03*
Y1879600D02*
D03*
X1244600Y1905000D02*
D03*
Y1879600D02*
D03*
X1219200Y1905000D02*
D03*
Y1879600D02*
D03*
X1193800Y1905000D02*
D03*
Y1879600D02*
D03*
X1168400Y1905000D02*
D03*
Y1879600D02*
D03*
X1143000Y1905000D02*
D03*
Y1879600D02*
D03*
X1117600Y1905000D02*
D03*
Y1879600D02*
D03*
X1092200Y1905000D02*
D03*
Y1879600D02*
D03*
X1066800Y1905000D02*
D03*
Y1879600D02*
D03*
X1041400Y1905000D02*
D03*
Y1879600D02*
D03*
X1016000Y1905000D02*
D03*
Y1879600D02*
D03*
X990600Y1905000D02*
D03*
Y1879600D02*
D03*
X965200Y1905000D02*
D03*
Y1879600D02*
D03*
X939800Y1905000D02*
D03*
Y1879600D02*
D03*
X914400Y1905000D02*
D03*
Y1879600D02*
D03*
X889000Y1905000D02*
D03*
Y1879600D02*
D03*
X863600Y1905000D02*
D03*
X1064900Y825500D02*
D03*
X1084900D02*
D03*
X1104900D02*
D03*
X1124900D02*
D03*
X1064900Y845500D02*
D03*
X1084900D02*
D03*
X1104900D02*
D03*
X1473200Y1230000D02*
D03*
Y1250000D02*
D03*
Y1270000D02*
D03*
Y1290000D02*
D03*
X1453200Y1230000D02*
D03*
Y1250000D02*
D03*
Y1270000D02*
D03*
D23*
X863600Y1371600D02*
D03*
Y1879600D02*
D03*
X1453200Y1290000D02*
D03*
D24*
X1124900Y845500D02*
D03*
D25*
X1397000Y1041400D02*
D03*
D26*
X1485900Y965200D02*
D03*
D27*
Y1016000D02*
D03*
D28*
X830580Y1211580D02*
D03*
D29*
X584200Y939800D02*
D03*
X812800Y990600D02*
D03*
X1300480Y972820D02*
D03*
X1338580Y1699260D02*
D03*
X1318260Y1526540D02*
D03*
X1343660Y1551940D02*
D03*
X1313180Y1732280D02*
D03*
X1056640Y1297940D02*
D03*
X1018540Y1277620D02*
D03*
X1386840Y1209040D02*
D03*
X1346200Y1249680D02*
D03*
X1211580Y1099820D02*
D03*
X1140460D02*
D03*
X1270000Y911860D02*
D03*
X1209040D02*
D03*
X662940Y1336040D02*
D03*
X570400Y1293960D02*
D03*
X866140Y1135380D02*
D03*
X1191260Y1043940D02*
D03*
X1363980Y1127760D02*
D03*
X1209040D02*
D03*
X1176020Y1247140D02*
D03*
X894080Y1231900D02*
D03*
X843280Y1244600D02*
D03*
X1016000Y1336040D02*
D03*
X955040Y1277620D02*
D03*
X990600Y1353820D02*
D03*
X1153160Y1056640D02*
D03*
X1155700Y1023620D02*
D03*
X1424940Y1297940D02*
D03*
X929640Y1557020D02*
D03*
X922020Y1506220D02*
D03*
X1320800Y1424940D02*
D03*
X1209040Y1540510D02*
D03*
X1292860Y1424940D02*
D03*
X1203960Y1506220D02*
D03*
X1239520Y1430020D02*
D03*
X1173480Y1526540D02*
D03*
X1209040Y1574800D02*
D03*
X1206500Y1428750D02*
D03*
X1211580Y1658620D02*
D03*
X969010Y1012190D02*
D03*
X988060Y1029970D02*
D03*
X887730Y1346200D02*
D03*
X787400Y1079500D02*
D03*
X697230Y1032510D02*
D03*
X1327150Y1841500D02*
D03*
X731520Y1032510D02*
D03*
X1395730Y1940560D02*
D03*
X920750Y996950D02*
D03*
X941070D02*
D03*
X1295400Y1332230D02*
D03*
X1257300Y1330960D02*
D03*
D30*
X609600Y939800D02*
D03*
D31*
X1099820Y1297940D02*
D03*
D32*
X1268600Y1054100D02*
D03*
Y1041400D02*
D03*
Y1028700D02*
D03*
Y1016000D02*
D03*
Y1003300D02*
D03*
Y990600D02*
D03*
Y977900D02*
D03*
X1220600Y1054100D02*
D03*
Y1041400D02*
D03*
Y1028700D02*
D03*
Y1016000D02*
D03*
Y1003300D02*
D03*
Y990600D02*
D03*
Y977900D02*
D03*
X1281300Y1550670D02*
D03*
Y1537970D02*
D03*
Y1525270D02*
D03*
Y1512570D02*
D03*
X1233300Y1550670D02*
D03*
Y1537970D02*
D03*
Y1525270D02*
D03*
Y1512570D02*
D03*
X1281300Y1741170D02*
D03*
Y1728470D02*
D03*
Y1715770D02*
D03*
Y1703070D02*
D03*
X1233300Y1741170D02*
D03*
Y1728470D02*
D03*
Y1715770D02*
D03*
Y1703070D02*
D03*
D33*
X1235600Y957580D02*
D03*
X1253600D02*
D03*
X1469500Y1320800D02*
D03*
X1451500D02*
D03*
X970060Y988060D02*
D03*
X988060D02*
D03*
X1040020Y1577340D02*
D03*
X1058020D02*
D03*
X966360Y848360D02*
D03*
X984360D02*
D03*
Y883920D02*
D03*
X966360D02*
D03*
X1235600Y937260D02*
D03*
X1253600D02*
D03*
X1258460Y1490980D02*
D03*
X1276460D02*
D03*
X1261000Y1681480D02*
D03*
X1279000D02*
D03*
D34*
X1314450Y1023400D02*
D03*
Y1041400D02*
D03*
X1371600Y1524000D02*
D03*
Y1542000D02*
D03*
Y1714500D02*
D03*
Y1732500D02*
D03*
X1003300Y1545700D02*
D03*
Y1527700D02*
D03*
X1028700Y1545700D02*
D03*
Y1527700D02*
D03*
X944880Y886460D02*
D03*
Y868460D02*
D03*
X916940Y885300D02*
D03*
Y867300D02*
D03*
X977900Y1545700D02*
D03*
Y1527700D02*
D03*
D35*
X1397000Y1124900D02*
D03*
Y1104900D02*
D03*
X1168400Y1008220D02*
D03*
Y988220D02*
D03*
X1130300Y1005840D02*
D03*
Y1025840D02*
D03*
X1275080Y957420D02*
D03*
Y937420D02*
D03*
X949960Y1203800D02*
D03*
Y1183800D02*
D03*
Y1168240D02*
D03*
Y1148240D02*
D03*
D36*
X1323500Y1123950D02*
D03*
X1343500D02*
D03*
X1400650Y1250950D02*
D03*
X1380650D02*
D03*
X1432400D02*
D03*
X1412400D02*
D03*
X1463200Y1143000D02*
D03*
X1483200D02*
D03*
X1432400Y1270000D02*
D03*
X1412400D02*
D03*
X1400650D02*
D03*
X1380650D02*
D03*
X1356200Y1041400D02*
D03*
X1336200D02*
D03*
X1356200Y1022350D02*
D03*
X1336200D02*
D03*
X1234440Y1120140D02*
D03*
X1254440D02*
D03*
X1254600Y1099820D02*
D03*
X1234600D02*
D03*
X1191100Y971550D02*
D03*
X1171100D02*
D03*
X1156650D02*
D03*
X1136650D02*
D03*
X1308420Y937260D02*
D03*
X1328420D02*
D03*
X975680Y1297940D02*
D03*
X995680D02*
D03*
X975680Y1320800D02*
D03*
X995680D02*
D03*
D37*
X1460500Y1192350D02*
D03*
X1451000Y1169850D02*
D03*
X1470000D02*
D03*
X1346200Y1079500D02*
D03*
X1355700Y1102000D02*
D03*
X1336700D02*
D03*
D38*
X1053800Y1539900D02*
D03*
X1079800Y1558900D02*
D03*
Y1549400D02*
D03*
Y1539900D02*
D03*
X1053800Y1558900D02*
D03*
D39*
X984250Y909450D02*
D03*
X971550D02*
D03*
X958850D02*
D03*
X946150D02*
D03*
X933450D02*
D03*
X920750D02*
D03*
X908050D02*
D03*
X895350D02*
D03*
X984250Y957450D02*
D03*
X971550D02*
D03*
X958850D02*
D03*
X946150D02*
D03*
X933450D02*
D03*
X920750D02*
D03*
X908050D02*
D03*
X895350D02*
D03*
D40*
X1397800Y838200D02*
Y970750D01*
X1447800Y838200D02*
X1470660Y861060D01*
Y953360D01*
X1482500Y965200D01*
D41*
X1422400Y1016000D02*
X1485900D01*
D42*
X1397000D02*
X1422400D01*
D43*
X975360Y871220D02*
Y894080D01*
X908050Y918210D02*
X914400Y924560D01*
X1054100D01*
X1391920Y1226820D02*
Y1270000D01*
X1400650D01*
X1406525D01*
D44*
X942560Y868460D02*
X944880D01*
X932180Y878840D02*
X942560Y868460D01*
X932180Y878840D02*
Y908180D01*
X933450Y909450D01*
X988060Y961260D02*
Y988060D01*
X984250Y957450D02*
X988060Y961260D01*
X958850Y946150D02*
Y957450D01*
X1028700Y1545700D02*
X1040240D01*
X1043940Y1549400D01*
X1079800D01*
X1052220Y1539900D02*
X1053800D01*
X1040020Y1527700D02*
X1052220Y1539900D01*
X1028700Y1527700D02*
X1040020D01*
Y1545920D02*
Y1577340D01*
Y1545920D02*
X1040240Y1545700D01*
M02*
