M48
;Layer_Color=9474304
;FILE_FORMAT=4:4
METRIC,LZ
;TYPE=PLATED
T1F00S00C0.6000
T2F00S00C0.8000
T3F00S00C0.9000
T4F00S00C1.0000
T5F00S00C1.3000
T6F00S00C2.0000
T7F00S00C3.0000
;TYPE=NON_PLATED
T8F00S00C3.0000
%
T01
X010649Y008255
X010849
X011049
X011249
Y008455
X011049
X010849
X010649
X014532Y0123
X014732
Y0125
Y0127
Y0129
X014532
Y0127
Y0125
T02
X0069723Y0103251
X0073152
X007874Y010795
X008128Y009906
X0092075Y0099695
X0094107
X0096901Y0101219
X0098806Y0102997
X011557Y0102362
X0115316Y0105664
X0114046Y0109982
X0086614Y0113538
X0120904Y0112776
X0121158Y0109982
X0119126Y0104394
X0120904Y0091186
X0127
X0130048Y0097282
X0136398Y0112776
X0138684Y0120904
X013462Y0124968
X0142494Y0129794
X012954Y0133223
X012573Y0133096
X0123952Y0143002
X012065Y0142875
X0120396Y0150622
X0120904Y0154051
Y015748
X0131826Y0152654
X0134366Y0155194
X013208Y0142494
X0129286
X0117348Y0152654
X0092202Y0150622
X0092964Y0155702
X0088773Y013462
X009906Y0135382
X01016Y0133604
X0101854Y0127762
X0105664Y0129794
X0109982
X0117602Y0124714
X0095504Y0127762
X0089408Y012319
X0084328Y012446
X0066294Y0133604
X005704Y0129396
X0121158Y0165862
X0133858Y0169926
X0131318Y0173228
X0132715Y018415
X0139573Y0194056
T03
X011938Y013716
X012192
X012446
X0127
X012954
X013208
X013462
X013716
X01397
X014224
X014478
X014732
Y01397
X014478
X014224
X01397
X013716
X013462
X013208
X012954
X0127
X012446
X012192
X011938
X011684
Y013716
X01143
Y01397
X011176
Y013716
X010922
Y01397
X010668
Y013716
X010414
Y01397
X01016
Y013716
X009906
Y01397
X009652
Y013716
X009398
Y01397
X009144
Y013716
X00889
Y01397
X008636
Y013716
Y018796
X00889
X009144
X009398
X009652
X009906
X01016
X010414
X010668
X010922
X011176
X01143
X011684
Y01905
X01143
X011176
X010922
X010668
X010414
X01016
X009906
X009652
X009398
X009144
X00889
X008636
X011938
X012192
X012446
X0127
X012954
X013208
X013462
X013716
X01397
X014224
X014478
X014732
Y018796
X014478
X014224
X01397
X013716
X013462
X013208
X012954
X0127
X012446
X012192
X011938
T04
X005842Y009398
X006096
X00635Y010795
X005588
X0083058Y0113538
X01397Y010414
Y01016
Y009906
X014859Y009652
Y01016
X014478Y008382
X013978
X0083058Y0121158
X006096Y012446
X005842
X005588
T05
X013716Y014958
Y015748
X013707Y016877
Y017667
T06
X005324Y01397
T07
X005588Y008128
X0127
X005588Y01905
X0127Y018034
T08
X014741Y015353
X014732Y017272
M30
